<?xml version="1.0" encoding="UTF-8" standalone="no"?>
<svg
   xmlns:dc="http://purl.org/dc/elements/1.1/"
   xmlns:cc="http://creativecommons.org/ns#"
   xmlns:rdf="http://www.w3.org/1999/02/22-rdf-syntax-ns#"
   xmlns:svg="http://www.w3.org/2000/svg"
   xmlns="http://www.w3.org/2000/svg"
   xmlns:sodipodi="http://sodipodi.sourceforge.net/DTD/sodipodi-0.dtd"
   xmlns:inkscape="http://www.inkscape.org/namespaces/inkscape"
   width="300px"
   height="300px"
   preserveAspectRatio="xMidYMax"
   viewBox="-480803.67 4076603.8 2066.3295 2268.4823"
   id="svg2"
   version="1.1"
   inkscape:version="0.47 r22583"
   sodipodi:docname="Murcia-loc.svg">
  <metadata
     id="metadata154">
    <rdf:RDF>
      <cc:Work
         rdf:about="">
        <dc:format>image/svg+xml</dc:format>
        <dc:type
           rdf:resource="http://purl.org/dc/dcmitype/StillImage" />
      </cc:Work>
    </rdf:RDF>
  </metadata>
  <defs
     id="defs152">
    <inkscape:perspective
       sodipodi:type="inkscape:persp3d"
       inkscape:vp_x="0 : 196221.46 : 1"
       inkscape:vp_y="0 : 1000 : 0"
       inkscape:vp_z="506846.37 : 196221.46 : 1"
       inkscape:persp3d-origin="253423.18 : 130814.31 : 1"
       id="perspective156" />
    <filter
       inkscape:collect="always"
       id="filter4951">
      <feGaussianBlur
         inkscape:collect="always"
         stdDeviation="34.50439"
         id="feGaussianBlur4953" />
    </filter>
    <inkscape:perspective
       id="perspective4988"
       inkscape:persp3d-origin="0.5 : 0.33333333 : 1"
       inkscape:vp_z="1 : 0.5 : 1"
       inkscape:vp_y="0 : 1000 : 0"
       inkscape:vp_x="0 : 0.5 : 1"
       sodipodi:type="inkscape:persp3d" />
    <inkscape:perspective
       id="perspective5046"
       inkscape:persp3d-origin="0.5 : 0.33333333 : 1"
       inkscape:vp_z="1 : 0.5 : 1"
       inkscape:vp_y="0 : 1000 : 0"
       inkscape:vp_x="0 : 0.5 : 1"
       sodipodi:type="inkscape:persp3d" />
  </defs>
  <sodipodi:namedview
     pagecolor="#ffffff"
     bordercolor="#666666"
     borderopacity="1"
     objecttolerance="10"
     gridtolerance="10"
     guidetolerance="10"
     inkscape:pageopacity="0"
     inkscape:pageshadow="2"
     inkscape:window-width="1280"
     inkscape:window-height="750"
     id="namedview150"
     showgrid="false"
     inkscape:zoom="0.22173415"
     inkscape:cx="1134.3386"
     inkscape:cy="1134.2411"
     inkscape:window-x="-8"
     inkscape:window-y="-8"
     inkscape:window-maximized="1"
     inkscape:current-layer="svg2" />
  <title
     id="title4"> SVG from Global Mapper </title>
  <rect
     y="4076514.2"
     x="-480881.97"
     height="2497.5171"
     width="2215.1177"
     id="rect3736"
     style="opacity:1;fill:#cbeaf1;stroke:#000000;stroke-width:1.99999988000000010;stroke-linecap:butt;stroke-linejoin:round;stroke-miterlimit:4;stroke-opacity:1;stroke-dasharray:none;stroke-dashoffset:0;fill-opacity:1" />
  <path
     style="fill:#278094;fill-opacity:1;stroke:none;opacity:0.69999999999999996;filter:url(#filter4951)"
     d="m -480870.86,4079035.9 776.28,3.5 0.97,-5.1 2.56,-1.3 2.04,1.2 -0.66,4.6 1.19,-4.6 -1.85,-1.7 15.53,-51.5 7.19,-11.5 5.31,-4.2 8.79,-2 11.18,-9.5 0.63,-7.8 4.9,-3 -2.34,-0.4 7.28,-9.2 5.25,-11.2 11.85,-8.6 3.75,-9 7.21,-8.1 8.79,-5.8 -0.47,-1.5 8.93,-9.4 1.91,-5.5 14.75,-12 18.75,-45.2 18.25,-27.9 4.56,-3.6 3.07,1 0.96,-1.9 5.07,-0.3 5,1 3.22,4.7 1.5,-0.7 3,-3 6.21,-20.4 9.1,-6.3 3.37,2.4 3.47,-0.2 0.78,-2.2 0.1,0 1.15,2 3.13,-0.3 0.84,-1.6 -2.69,-0.5 -0.4,-2.2 3,-5 3.4,-0.1 3.66,-5.4 2.66,1.3 5.5,-1.9 -0.88,-1.6 2.38,-1.6 -1.38,-1.2 8.13,-9.7 4.59,-1.5 11.75,-10.2 5.03,-1 2.28,1.7 -0.84,2.5 5.28,-0.9 5.25,-3.5 -3.94,1.2 -1.22,-2.7 2.38,-3.3 6.03,-1.9 6.97,3.9 -1.47,4 8.09,-3.1 0.78,-2 -3.84,-0.9 0.84,-2.7 2.35,0.2 -1.85,-0.7 0.16,-2.3 2.22,-2 9.34,0 3.03,2.2 6.35,-11.9 5.72,-1.6 1.59,-2.6 4.84,-0.1 6.32,-9.9 4.68,-1.3 1.25,-2.9 19.63,-0.1 3.94,12.4 6.22,2 5.53,-1 7.06,-7.7 4.22,-1.9 0.53,-6.5 -7.59,-0.9 -0.32,-2.5 2.47,-19.8 2.06,-1.5 -1.53,-3.7 4.03,-2.6 1.44,-9.6 1.25,0.5 1.97,-5.3 -1.53,0.1 0,-2.5 1.87,-1.9 1.38,1.1 3.62,-9.3 4.25,-11 5.16,-1 -2.34,-2 1.93,-0.1 0.1,-3.5 7.97,-8.5 7.56,-4.7 4,-0.3 2.5,-5 12.63,-4.1 1.03,-2.3 7.34,0.5 6.16,-5.8 13.93,0 2.57,-1.9 -0.22,-3.2 5.47,-10.2 7.34,-11.1 3.13,-0.4 6.9,-6.7 5.91,-0.9 21.84,-26.8 17.97,-10.7 7.69,0.6 0.94,-3.6 6.78,-5 6.25,-0.5 0.37,3.2 5.06,-3.7 13.88,2.3 0.81,1.9 13.91,0.9 1.87,1.4 -0.43,4.1 2.84,-4.4 7.34,-1.2 2.47,1.2 0.28,3.7 3.66,-4.4 7.03,-2.1 2.66,3 7.4,1.1 3.85,-4.3 -5,-2.3 0,-5.3 4.75,-6.3 6.47,-3.2 3.06,-5.8 8.56,-1.6 3.25,2.8 8.13,-0.7 1.59,4.4 9.81,-3.2 9.85,4.1 8.96,-0.7 10.25,6.3 1.57,-1.4 0.65,2.9 7.57,0.9 4.06,2.7 10.65,11.2 -1.53,7.1 -4.56,1.8 -0.12,1.8 2.84,6.2 7.06,6 11.81,1.4 1,-1.4 1.44,0.7 -0.97,1.6 6.63,-3 1.69,2.1 21.34,1.5 6.75,2.6 0.41,4.8 10.06,0.3 4.44,-1.8 -10.66,-13.6 -9.56,-3.3 -2,-6.8 3.5,-7.6 2.84,1.1 -0.75,-4.7 2.56,-0.5 -0.68,-2.9 8.65,-4.6 4.35,-5.6 6.96,1.7 9.35,-3.9 3.25,-5.9 11.5,-4.4 1.97,-5.7 3.06,-0.2 2.34,-2.9 3.03,0.9 2.97,4.6 10.63,0.6 2.44,-4.5 8.81,2.1 3.15,2.9 3.04,-1.6 1.87,2.4 12.44,0.1 7,7.7 3.19,-1.8 8.53,0.1 2.03,-5.2 -0.72,-4.7 4.37,-3.6 -1.09,-2.8 11.59,2 0.13,-3.8 4.87,1.5 4.79,6.8 3.5,-5 3.68,1.2 -2.84,-4.1 -3.69,-1.3 2.25,-6.2 -2.37,-6.1 -6.44,0 1.84,-1 -0.68,-6.3 3.25,0.1 1.46,6.1 14.69,-1 0.75,-1.8 2.66,2.7 2.06,5.6 -1.78,0.2 1.28,1.7 -3.37,4.3 -9.25,-0.3 9.06,0.6 -3.85,9.1 3.82,1.7 0.18,6.3 6.41,2.4 -1.47,1.8 1.94,0.5 2.59,-2.6 1.35,1.6 8.09,-1.1 0.75,2.6 1.66,-1.7 3.31,1 0.81,6.3 3.56,-2.5 4.16,0.4 -2.66,3.5 -14.59,7.3 -1.75,2.7 7.97,2.1 3.37,3.2 15.63,-3.4 5.75,2.9 4.22,-0.6 10,5.8 4.4,-7.4 5.94,0 4,-2.5 1,-3.1 8.16,-2.5 4.28,-3.9 3.03,-0.6 1.62,2.2 8.97,-4.4 3.97,0.1 -0.94,-9.7 1.38,-2 3.12,-0.6 1.44,2.8 3.81,0.6 6.54,-6.5 3.21,2.3 10.44,-2.4 -1.69,-5.7 2.75,-3.9 6.54,0.2 4.71,2.8 1.25,4.2 -1.53,2.4 1.78,4.4 10.25,-1.3 12.66,4.8 12.13,-14 21.84,-3.9 0.5,-5 6.28,-4.8 4.06,-1.3 2.72,2.1 6.47,-4.9 4.31,1.2 4.35,-2.7 13.62,0.5 18.16,-4.5 8.84,-6 9.31,-2.4 -0.78,-4.1 3.72,-6.3 0.38,-5.1 3.62,0.6 3.69,-4.6 -0.1,-2.3 5.46,-5.5 1.19,-5.2 2.03,-0.1 -2,-0.4 1.82,-1.7 7.65,1.2 6.22,-5 -1.91,1 0.82,-5.4 -8.22,6 -7.03,-3.8 -8.75,-11.5 -9.41,-19.6 -2.59,-8.2 2.06,-1.9 -4.66,-1.5 -2.93,-6 -12.97,-42.7 -2.78,-16.1 0.25,-12.1 2.71,-26.2 6.25,-2.2 -4.25,0.9 2.91,-3.5 -1.66,-4.8 5.04,-3.7 0.87,2.1 -1.94,0.4 3.47,-0.3 -0.4,-2.5 -4.57,-1.3 6.25,0.2 6.6,9.8 -7.32,-14.5 -2.65,2.5 -5.81,-1.8 -8.63,-9.7 -2.66,-6.1 0.16,-12.7 3.03,-4.2 3.03,-0.1 -2.06,-1.6 -1.06,-6.8 -3.75,-4 1.94,-1 -0.79,-1.6 -5,2.7 -0.34,3.3 -0.34,-3.1 -3.88,-2.7 -1.84,1 -0.1,-0.3 -1.31,1 1.38,-0.7 1.25,4.1 -3.53,-2 4.56,6.4 3.31,-2.9 -3.25,3.5 4.75,9.5 2.06,15 5.85,8.3 -3.28,5.1 2.12,-2 1.69,3.6 8.81,1.7 -4.41,3.1 0.94,-2.3 -5.9,-1.4 2.4,1.7 -1.53,0.9 1.88,2.5 -2.44,1 -2,-0.9 1.53,-1.7 -1.84,-0.3 -0.57,-3.7 0.44,3.6 0.1,0.1 0.69,4.3 4.53,8.3 -0.87,13.7 -6.1,30.1 3.63,1 2.31,19.2 -2.5,3.6 2.81,0.4 4.5,11.3 3.32,18.7 -1.38,6.6 4.97,2.9 -6.62,-1.4 -5.29,1.8 0.94,3.7 4.06,0.8 0.88,-3.6 9.97,0.5 3.09,2.9 -0.22,7 3.78,6.1 -2.28,0.4 -0.68,9.6 -2.04,2.2 0.88,3.5 -4.69,5.5 -6.81,3 -6.72,-0.1 -8.28,-3.1 -3.25,-3.4 -0.56,-7 -9.6,-0.5 -15.31,-9 -5,0.3 -11.06,-4.1 -16.75,-10 -24.35,-24.6 -3.93,-10.6 -6.35,-6.9 -7.37,-15.2 -17.31,-21.7 -3.47,-12.3 2.34,-5.5 7.38,-8 0.1,-6.6 1.91,-0.4 -0.79,-1.7 2.5,-3.1 -1.09,-4.8 4.31,-9.2 5.47,-5.8 14.06,-4.1 10.54,-13.4 8.71,-11.5 3.6,-1.7 9.65,-15.1 -2.56,1.7 0.35,-9.1 -4.07,-10.2 7.75,-18.6 3.97,-4.8 3.5,-1 6.16,-0.4 0,-7.1 8.62,-0.9 16.91,30.1 -0.69,6.2 7.94,4.5 -1.16,1.4 3.13,0.2 -2.19,0.9 1.03,1.2 -2.28,-1.4 1.88,2.5 5.68,-3.3 1.38,1.2 -0.16,-1.6 -3.06,-4 -7.94,-35.6 1.5,-0.3 -1.34,0.1 1.5,-6.2 6.53,2 -0.63,-2.2 -6.65,-0.3 -5.41,-34.6 1.81,-28.1 5.69,-1.4 3.94,-31.7 1.5,-12.3 3.22,-3.2 1.19,1.3 6.34,-13.7 4.97,0.1 4.12,-4.9 5.32,-2.3 6.15,4.9 3,-2.1 -3.22,-13 4.5,-20.4 7.44,-8.4 7.47,-0.1 1.75,-22.6 7.91,-19.3 2.25,-1.6 6.25,6.4 -6.04,-7.4 7.07,-5.5 4.68,0.8 0.35,1.7 1.75,-1.9 2.5,4.2 -1.53,5.1 -7.25,6.4 7.72,-6.1 2.65,-7.1 8.28,-4.5 4.82,0.9 2.15,-6.2 4.69,-4.7 4.47,0.9 -1.53,-2 2.37,-1.3 0.56,-7.8 -1.59,-1.1 2.69,-1.9 -1.53,-1.4 2.47,-5.8 5.75,-4.6 0.31,-4.4 -5.56,-6.5 -0.69,-21.9 3.03,-8.1 -1.94,-8.1 1.1,-24.1 4.81,-52.3 8.75,-57.9 6.28,-24.2 7.59,-13.3 13.91,-28.7 17.75,-17.8 6,-3.3 34.91,-3.1 3.93,1.1 -4.34,7.4 4.84,-5.2 6.16,-1 13.59,0.9 -0.22,4.6 2,-4.1 17,-5.7 1.69,-1.1 -680.18,-386 -1535.82,1839.8 z m 1907.1,-748.8 -3.63,0.5 -1.94,2.9 2.69,0.5 5.28,6.8 -1.87,-4 2.53,-3.2 -3.06,-3.5 z m 30.25,0.9 -4.57,5.9 -0.22,4.3 2.13,4.9 5.09,3.2 5.22,-2.1 -0.15,-3.2 -0.63,-3.8 -6.87,-9.2 z"
     id="path4018"
     sodipodi:nodetypes="ccccccccccccccccccccccccccccccccccccccccccccccccccccccccccccccccccccccccccccccccccccccccccccccccccccccccccccccccccccccccccccccccccccccccccccccccccccccccccccccccccccccccccccccccccccccccccccccccccccccccccccccccccccccccccccccccccccccccccccccccccccccccccccccccccccccccccccccccccccccccccccccccccccccccccccccccccccccccccccccccccccccccccccccccccccccccccccccccccccccccccccccccccccccccccccccccccccccccccccccccccccccccccccccccccccccccccccccccccccccccccccccccccccccccccccccccccccccccccccccccccccccccccccccccccccccccccccccccccccccccccccccccccccccccccccccccccccccccccccccccc" />
  <path
     d="m -479227,4076889.7 2.21,22.5 8.88,7.1 4.3,42.3 11.81,47.3 -8.47,20 -7.86,31.5 -11.01,21 13.64,36.6 -30.85,39.4 -29.16,27.9 -15.13,12.2 -13.67,5.1 19.99,9.5 -9.89,3.7 -3.72,36.8 1.76,7.6 -1.5,44 4.07,30.5 28.81,0.8 33.56,10.5 43.23,26.1 5.29,19.4 13.88,23.5 4.81,26.7 -0.44,23.5 -9.36,21.7 -13.83,59.3 -11.8,23 -6.03,16.5 -4.35,7.6 -30.84,42.4 6.7,31 0.3,27 8.95,31.5 13.1,22.5 4.21,6.6 8.84,5.1 18.46,31.9 17.63,23.8 7.7,19.7 27.54,43.4 14.24,35.1 23.41,30.8 47.55,54.5 6.55,5 10.88,13.7 12.42,11.5 29.49,7.6 14.58,15.3 9.67,5.1 12.05,1.1 9.54,-4.3 5.42,34.6 6.65,0.3 0.63,2.2 -6.54,-2 -1.49,6.2 1.32,-0.1 -1.49,0.3 7.95,35.6 3.06,4 0.16,1.6 -1.4,-1.2 -5.67,3.3 -1.88,-2.5 2.29,1.4 -1.03,-1.2 2.19,-0.9 -3.13,-0.2 1.14,-1.4 -7.94,-4.5 0.69,-6.2 -16.91,-30.1 -8.6,0.9 0,7.1 -6.16,0.4 -3.5,1 -3.99,4.8 -7.75,18.6 4.09,10.2 -0.36,9.1 2.57,-1.7 -9.66,15.1 -3.59,1.7 -8.71,11.5 -10.54,13.4 -14.07,4.1 -5.48,5.8 -4.29,9.2 1.1,4.8 -2.53,3.1 0.8,1.7 -1.91,0.4 -0.1,6.6 -7.38,8 -2.34,5.5 3.47,12.3 17.33,21.7 7.36,15.2 6.36,6.9 3.93,10.6 24.33,24.6 16.76,10 11.07,4.1 4.99,-0.3 15.31,9 9.61,0.5 0.54,7 3.25,3.4 8.28,3.1 6.72,0.1 6.82,-3 4.68,-5.5 -0.87,-3.5 2.04,-2.2 0.68,-9.6 2.28,-0.4 -3.78,-6.1 0.23,-7 -3.09,-2.9 -9.97,-0.5 -0.89,3.6 -4.07,-0.8 -0.94,-3.7 5.3,-1.8 6.63,1.4 -4.99,-2.9 1.4,-6.6 -3.34,-18.7 -4.47,-11.3 -2.82,-0.4 2.48,-3.6 -2.3,-19.2 -3.62,-1 6.08,-30.1 0.89,-13.7 -4.53,-8.3 -0.68,-4.3 1.87,0.3 -1.55,1.7 2,0.9 2.45,-1 -1.89,-2.5 1.55,-0.9 -2.42,-1.7 5.91,1.4 -0.94,2.3 4.41,-3.1 -8.82,-1.7 -1.68,-3.6 -2.13,2 3.28,-5.1 -5.85,-8.3 -2.05,-15 -4.76,-9.5 3.26,-3.5 -3.3,2.9 -4.58,-6.4 3.53,2 -1.25,-4.1 1.89,-1 3.88,2.7 0.34,3.1 0.32,-3.3 5.03,-2.7 0.77,1.6 -1.94,1 3.75,4 1.07,6.8 2.05,1.6 -3.02,0.1 -3.05,4.2 -0.16,12.7 2.66,6.1 8.63,9.7 5.83,1.8 2.63,-2.5 7.34,14.5 -6.61,-9.8 -6.25,-0.2 4.56,1.3 0.42,2.5 -3.47,0.3 1.92,-0.4 -0.85,-2.1 -5.05,3.7 1.65,4.8 -2.91,3.5 4.27,-0.9 -6.25,2.2 -2.72,26.2 -0.24,12.1 2.76,16.1 12.99,42.7 2.92,6 4.67,1.5 -2.06,1.9 2.58,8.2 9.41,19.6 8.75,11.5 7.02,3.8 8.22,-6 -0.81,5.4 1.91,-1 -6.23,5 -7.65,-1.2 -1.8,1.7 2,0.4 -2.04,0.1 -1.2,5.2 -5.45,5.5 0.1,2.3 -3.69,4.6 -3.63,-0.6 -0.37,5.1 -3.74,6.3 0.78,4.1 -9.31,2.4 -8.84,6 -18.15,4.5 -13.61,-0.5 -4.37,2.7 -4.29,-1.2 -6.49,4.9 -2.71,-2.1 -4.07,1.3 -6.26,4.8 -0.52,5 -21.83,3.9 -12.12,14 -12.66,-4.8 -10.27,1.3 -1.78,-4.4 1.53,-2.4 -1.22,-4.2 -4.73,-2.8 -6.55,-0.2 -2.72,3.9 1.67,5.7 -10.45,2.4 -3.21,-2.3 -6.53,6.5 -3.8,-0.6 -1.43,-2.8 -3.15,0.6 -1.36,2 0.93,9.7 -3.96,-0.1 -8.99,4.4 -1.61,-2.2 -3.02,0.6 -4.3,3.9 -8.15,2.5 -1,3.1 -4.01,2.5 -5.92,0 -4.42,7.4 -9.99,-5.8 -4.21,0.6 -5.77,-2.9 -15.63,3.4 -3.35,-3.2 -7.99,-2.1 1.77,-2.7 14.58,-7.3 2.66,-3.5 -4.15,-0.4 -3.58,2.5 -0.81,-6.3 -3.29,-1 -1.67,1.7 -0.74,-2.6 -8.09,1.1 -1.37,-1.6 -2.59,2.6 -1.93,-0.5 1.48,-1.8 -6.42,-2.4 -0.17,-6.3 -3.84,-1.7 3.85,-9.1 -9.04,-0.6 9.24,0.3 3.37,-4.3 -1.28,-1.7 1.78,-0.2 -2.06,-5.6 -2.66,-2.7 -0.76,1.8 -14.67,1 -1.49,-6.1 -3.25,-0.1 0.7,6.3 -1.83,1 6.43,0 2.37,6.1 -2.26,6.2 3.71,1.3 2.82,4.1 -3.67,-1.2 -3.49,5 -4.8,-6.8 -4.88,-1.5 -0.12,3.8 -11.59,-2 1.1,2.8 -4.38,3.6 0.72,4.7 -2.02,5.2 -8.55,-0.1 -3.18,1.8 -7.01,-7.7 -12.44,-0.1 -1.85,-2.4 -3.04,1.6 -3.15,-2.9 -8.81,-2.1 -2.45,4.5 -10.62,-0.6 -2.99,-4.6 -3.03,-0.9 -2.33,2.9 -3.05,0.2 -1.99,5.7 -11.49,4.4 -3.25,5.9 -9.34,3.9 -6.97,-1.7 -4.35,5.6 -8.65,4.6 0.69,2.9 -2.56,0.5 0.74,4.7 -2.84,-1.1 -3.5,7.6 2.01,6.8 9.55,3.3 10.67,13.6 -4.46,1.8 -10.07,-0.3 -0.39,-4.8 -6.76,-2.6 -21.32,-1.5 -1.69,-2.1 -6.65,3 0.97,-1.6 -1.42,-0.7 -1,1.4 -11.83,-1.4 -7.06,-6 -2.82,-6.2 0.1,-1.8 4.56,-1.8 1.54,-7.1 -10.64,-11.2 -4.07,-2.7 -7.57,-0.9 -0.65,-2.9 -1.58,1.4 -10.25,-6.3 -8.96,0.7 -9.83,-4.1 -9.82,3.2 -1.58,-4.4 -8.15,0.7 -3.24,-2.8 -8.57,1.6 -3.05,5.8 -6.48,3.2 -4.75,6.3 0,5.3 5.01,2.3 -3.85,4.3 -7.41,-1.1 -2.64,-3 -7.04,2.1 -3.66,4.4 -0.29,-3.7 -2.47,-1.2 -7.34,1.2 -2.85,4.4 0.45,-4.1 -1.88,-1.4 -13.91,-0.9 -0.79,-1.9 -13.9,-2.3 -5.04,3.7 -0.38,-3.2 -6.26,0.5 -6.76,5 -0.95,3.6 -7.7,-0.6 -17.95,10.7 -21.85,26.8 -5.91,0.9 -6.9,6.7 -3.12,0.4 -7.36,11.1 -5.46,10.2 0.23,3.2 -2.58,1.9 -13.92,0 -6.17,5.8 -7.33,-0.5 -1.04,2.3 -12.62,4.1 -2.5,5 -4,0.3 -7.56,4.7 -7.99,8.5 -0.1,3.5 -1.93,0.1 2.35,2 -5.14,1 -4.25,11 -3.65,9.3 -1.35,-1.1 -1.9,1.9 0,2.5 1.54,-0.1 -1.96,5.3 -1.25,-0.5 -1.44,9.6 -4.04,2.6 1.55,3.7 -2.09,1.5 -2.46,19.8 0.32,2.5 7.58,0.9 -0.52,6.5 -4.21,1.9 -7.08,7.7 -5.52,1 -6.22,-2 -3.94,-12.4 -19.62,0.1 -1.24,2.9 -4.69,1.3 -6.34,9.9 -4.82,0.1 -1.61,2.6 -5.7,1.6 -6.35,11.9 -3.03,-2.2 -9.36,0 -2.21,2 -0.16,2.3 1.86,0.7 -2.37,-0.2 -0.83,2.7 3.83,0.9 -0.77,2 -8.1,3.1 1.47,-4 -6.97,-3.9 -6.03,1.9 -2.36,3.3 1.22,2.7 3.94,-1.2 -5.25,3.5 -5.3,0.9 0.85,-2.5 -2.27,-1.7 -5.05,1 -11.75,10.2 -4.59,1.5 -8.12,9.7 1.38,1.2 -2.37,1.6 0.87,1.6 -5.5,1.9 -2.66,-1.3 -3.67,5.4 -3.4,0.1 -2.98,5 0.39,2.2 2.69,0.5 -0.84,1.6 -3.12,0.3 -1.17,-2 -39.73,-37 -43.22,-29 -35.49,-31.1 -47.34,-6.2 -18.22,-7.6 -17.11,1 3.11,26 -40.2,-30.7 -3.58,-8.5 -11.29,-26.4 -6.66,-10.8 -6.82,-4.5 -44.59,-69.9 -5.83,-9.5 -41.61,-62.5 -1.82,-4.6 1.83,-8.6 -1.89,-5.1 -10.45,-5.9 -5.43,-13 -7.48,-6.7 -1.88,-9.7 -3.13,-4.1 -0.45,-12 -6.34,-12.2 -5.87,2.7 -3.37,-10.1 -6.85,-7.6 -6.25,-19.5 -4.73,-6.2 2.38,-19.2 -1.92,-8.2 1.21,-9.1 -2.42,-3 4.94,-15.2 0.54,-12 3.96,-4 4.61,-0.6 4.51,-7.3 -7.41,-28.4 -2.38,-26.4 -4.6,-12.7 7.89,-43.1 5.79,-20.3 -3.36,-6 4.69,-26.2 7.66,-17.4 12.15,-9.9 3.19,-11.7 -9.07,-7.8 -5.84,0.2 -7.45,-9.7 -4.62,6.2 -4.83,-1.1 -1.42,-5.3 -19.08,17.4 -4.09,-0.5 -15.31,-9.3 -3.5,2.4 -3.98,-1.3 0.68,-2.3 -5.02,-4.8 -6.2,-1.9 -4.43,1.1 -2.96,-4.9 -9.05,-1.5 -3.8,1 -3.92,7.9 -7.95,8.6 -1.38,-3.6 -13.92,-4 -5.64,-5.3 -5.06,-0.2 1.7,-6.8 -4.45,-6.7 -8.34,-4.8 -5.67,-9 -7.55,0.7 -5.68,3.3 -18.3,0.5 1.08,2.3 -6.69,6.4 -8.54,-1.9 -8.34,5.6 -14.03,-18.6 -0.29,-2.9 -25.16,-18.6 -15.53,-8.4 -0.73,-2.2 -5.92,0.4 -2.05,-3.6 -9.24,-3.4 -17.17,-15.9 -5.98,-14.9 -8.84,-4.4 -8.21,-9.3 -2.91,-0.9 -23.05,-43.4 -0.88,-17.2 -12.02,-9.7 -15.23,-7.3 -20.53,-17.3 -3.07,-5.7 6.77,-25 9.1,-18.5 0.19,-7.5 18.07,-18.3 22.38,-13.3 35.1,-36.9 12.45,-22.1 0.88,-9.6 -1.56,-5.9 6,-13.2 8.86,-13.6 4.81,-3.6 12.33,-24.9 -0.6,-8.3 7.55,-15.1 2.55,-11.6 7.6,-7.5 21.61,-10.4 13.16,-14 6.86,-3.5 33.07,-7.5 28.17,-9.4 32.96,-38.8 8.56,-25.4 13.78,-21.3 16.36,-11.8 20.96,9.3 3.63,-2 6.36,0.5 23.11,23.6 15.59,3.3 8.73,-0.8 16.96,-8.2 15.51,-2 45.73,-12.5 15.85,-7.2 27.12,-20.9 16.03,-18.3 12.95,-6 16.88,0.8 5.97,-3.5 12.04,-21.7 20.65,-3.1 8.93,-3.8 -14.01,-12.6 1.33,-7.7 11.24,6.1 3.86,-3.8 2.48,0.6 1.15,3.8 8.52,1.1 -0.23,-19.7 3.53,-1.3 8.31,3.2 6.44,5.5 2.19,-0.9 1.57,-8.3 8.77,-2.2 10.13,8.5 0.3,5.5 5.15,-1.4 7.76,5.2 4.19,0.1 1.48,2 -0.98,4.8 4.69,1.4 2.17,-12.3 5.08,0.3 5.45,-4.8 2.41,0.3 3.22,7.7 5.68,1 5.21,4 6.22,8.1 -3.68,11.7 4.09,3.1 -3.71,4 -6.41,-0.9 -1.88,1.4 -0.22,13.3 5.16,2.5 1.34,8.3 3.08,5.3 12.43,6.3 3.51,8.3 -0.5,5.6 38.18,3.8 1.42,-1.9 6.14,2.3 16.17,-4.5 3.47,-2.9 11.33,-1.2 12.66,4 -0.14,2 30.41,-18.5 15.02,-12.4 6.97,-14.4 5,-4.6 2.61,0 15.81,-11.3 4.28,-5.5 42.75,-27.1 3.95,-46.8 -3.26,-17.6 -0.55,-50.1 -2.45,-15.5 -0.24,-20.3 -10.49,-50.2 -9.14,-23.6 7.38,-28.1 4.93,-16.6 22.94,-18.2 15.76,-8.7 4.36,-44 5.92,-34.6 -5.19,-18.6 28.19,-39.5 22.17,-20.9 20.75,-12.4 18.6,-6.3 26.32,38.6 15.34,-7.2 0.86,-3.5 17.67,-15.3 28.31,-14.1 18.06,-21.6 5.23,-10.2 18.05,-15.7 3.96,0.5 3.52,-3.6 14.41,-5.5 27,-4.9 23.57,-9.6 70.75,23.8 4.59,39.9 78.42,69.3 12.5,7.7 8.5,1.4 z"
     id="path128"
     style="fill:#ffffd0;fill-opacity:1;stroke:#000000;stroke-width:3.99999983;stroke-linecap:round;stroke-miterlimit:4;stroke-opacity:1;stroke-dasharray:none" />
  <path
     style="fill:#fbe9bd;fill-opacity:1;stroke:#000000;stroke-width:2;stroke-linecap:round;stroke-miterlimit:4;stroke-opacity:1;stroke-dasharray:none"
     d="M -78.03125 647.6875 L -78.65625 1074.9062 L -77.3125 1074.5 L -72.21875 1062 L -73.125 1058 L -68.5 1053 L -69.1875 1047.5 L -53.3125 1040 L -39.46875 1015.9062 L -34.8125 1013 L -33.125 1008.9062 L -26.21875 1005.4062 L -19.96875 991 L -19.96875 980.90625 L -15.34375 980.8125 L -8.34375 975.90625 L -6.0625 971.09375 L 1.09375 967.3125 L 4.59375 963 L 3.21875 955 L 5.4375 935.1875 L 3.71875 930.8125 L -2.84375 926.6875 L -3.625 915.5 L -0.0625 912.6875 L 10.71875 895.09375 L 8.6875 890.6875 L 9.15625 881.40625 L 7.78125 878.09375 L 4.53125 878 L 8.71875 872.59375 L 7.1875 865.5 L 11.75 858 L 11.3125 855.1875 L 15.46875 855.5 L 15.3125 837.90625 L 12.5625 835.59375 L 10.6875 819.1875 L 4.84375 815.5 L -34.375 805.09375 L -38.40625 797.40625 L -37.34375 774.90625 L -38 768.8125 L -33.875 762.59375 L -32.84375 756.09375 L -34.125 749.59375 L -31.84375 727 L -39.15625 720.40625 L -44.8125 706.6875 L -43.84375 703.59375 L -46.4375 695.1875 L -34.5 663.8125 L -36.5 656.90625 L -45.875 655.6875 L -68.34375 653.8125 L -72.40625 653.59375 L -78.03125 647.6875 z M -78.90625 1129.0938 L -78.53125 1989.1875 L -78.71875 1989.4062 L -79.1875 2405.0938 L 697.09375 2408.5938 L 698.0625 2403.5 L 700.625 2402.1875 L 702.65625 2403.4062 L 702 2408 L 703.1875 2403.4062 L 701.34375 2401.6875 L 716.875 2350.1875 L 724.0625 2338.6875 L 729.375 2334.5 L 738.15625 2332.5 L 749.34375 2323 L 749.96875 2315.1875 L 754.875 2312.1875 L 752.53125 2311.8125 L 759.8125 2302.5938 L 765.0625 2291.4062 L 776.90625 2282.8125 L 780.65625 2273.8125 L 787.875 2265.6875 L 796.65625 2259.9062 L 796.1875 2258.4062 L 805.125 2249 L 807.03125 2243.5 L 821.78125 2231.5 L 840.53125 2186.3125 L 858.78125 2158.4062 L 863.34375 2154.8125 L 866.40625 2155.8125 L 867.375 2153.9062 L 872.4375 2153.5938 L 877.4375 2154.5938 L 880.65625 2159.3125 L 882.15625 2158.5938 L 885.15625 2155.5938 L 891.375 2135.1875 L 900.46875 2128.9062 L 903.84375 2131.3125 L 907.3125 2131.0938 L 908.09375 2128.9062 L 868.375 2091.9062 L 825.125 2062.9062 L 789.65625 2031.8125 L 742.3125 2025.5938 L 724.09375 2018 L 706.96875 2019 L 710.09375 2045 L 669.875 2014.3125 L 666.3125 2005.8125 L 655.03125 1979.4062 L 648.375 1968.5938 L 641.53125 1964.0938 L 596.9375 1894.1875 L 591.125 1884.6875 L 549.5 1822.1875 L 547.6875 1817.5938 L 549.53125 1809 L 547.625 1803.9062 L 537.1875 1798 L 531.75 1785 L 524.28125 1778.3125 L 522.375 1768.5938 L 519.25 1764.5 L 518.8125 1752.5 L 512.46875 1740.3125 L 506.59375 1743 L 503.21875 1732.9062 L 496.375 1725.3125 L 490.125 1705.8125 L 485.40625 1699.5938 L 487.78125 1680.4062 L 485.875 1672.1875 L 487.0625 1663.0938 L 484.65625 1660.0938 L 489.59375 1644.9062 L 490.125 1632.9062 L 494.09375 1628.9062 L 498.6875 1628.3125 L 503.21875 1621 L 495.8125 1592.5938 L 493.40625 1566.1875 L 488.8125 1553.5 L 496.71875 1510.4062 L 502.5 1490.0938 L 499.125 1484.0938 L 503.84375 1457.9062 L 511.5 1440.5 L 523.625 1430.5938 L 526.84375 1418.9062 L 517.75 1411.0938 L 511.90625 1411.3125 L 504.46875 1401.5938 L 499.84375 1407.8125 L 495.03125 1406.6875 L 493.59375 1401.4062 L 474.53125 1418.8125 L 470.4375 1418.3125 L 455.125 1409 L 451.625 1411.4062 L 447.625 1410.0938 L 448.3125 1407.8125 L 443.3125 1403 L 437.09375 1401.0938 L 432.65625 1402.1875 L 429.71875 1397.3125 L 420.65625 1395.8125 L 416.875 1396.8125 L 412.9375 1404.6875 L 405 1413.3125 L 403.625 1409.6875 L 389.6875 1405.6875 L 384.0625 1400.4062 L 379 1400.1875 L 380.6875 1393.4062 L 376.25 1386.6875 L 367.90625 1381.9062 L 362.21875 1372.9062 L 354.6875 1373.5938 L 349 1376.9062 L 330.6875 1377.4062 L 331.78125 1379.6875 L 325.09375 1386.0938 L 316.5625 1384.1875 L 308.21875 1389.8125 L 294.1875 1371.1875 L 293.875 1368.3125 L 268.71875 1349.6875 L 253.1875 1341.3125 L 252.46875 1339.0938 L 246.5625 1339.5 L 244.5 1335.9062 L 235.25 1332.5 L 218.09375 1316.5938 L 212.125 1301.6875 L 203.28125 1297.3125 L 195.0625 1288 L 192.15625 1287.0938 L 169.09375 1243.6875 L 168.21875 1226.5 L 156.1875 1216.8125 L 140.96875 1209.5 L 120.4375 1192.1875 L 102.40625 1197.3125 L 85.625 1196.0938 L 63.75 1185.1875 L 52.125 1182.1875 L 43.03125 1183.3125 L 29.90625 1181.0938 L 20.28125 1167.1875 L 15.875 1167.0938 L -1.0625 1158.9062 L -13.5 1157.1875 L -23.875 1148.4062 L -30.96875 1153.1875 L -33.5 1153.0938 L -34.6875 1150.0938 L -50.40625 1140.4062 L -59.75 1131.1875 L -78.90625 1129.0938 z "
     transform="translate(-480803.67,4076603.8)"
     id="path4966" />
  <g
     transform="matrix(0.00996058,0,0,-0.01295113,-478092.6,4132529.3)"
     style="fill:none;stroke:#000000;stroke-width:88.04482524;stroke-linecap:round;stroke-miterlimit:4;stroke-opacity:0.43137255000000002;stroke-dasharray:none"
     id="Unknown_Area_Type_ccaa00c14_shp">
    <path
       style="stroke:#000000;stroke-width:88.04482524;stroke-miterlimit:4;stroke-opacity:0.43137255000000002;stroke-dasharray:none"
       id="path11"
       d="m -185448.1,4257965 -418.3,-1530 -1361.3,-225 31.4,-580 -616.7,-587 -170.4,-430 -573.8,99 -311.7,904 -509,-179 -346.7,298 -387.8,-301 -37.4,-316 347.5,-328 -173.4,-393 -917.5,64 -1474.9,-199 308.6,-447 -115.9,-674 597.3,-132 233.7,-151 42.5,-332 226.2,-139 -238.3,-256 -463.1,-696 -294.1,32 -422.1,-461 -651.2,-352 59.2,-1197 -732.7,-2289 -100.6,-2460 152.9,-847 -617.8,-139 -1734.9,-1075 -1363.1,-1392 -64.7,-378 -485.6,-65 -1048.5,-503 -1004.2,-753 -928.6,-11 -822.7,28 -339.9,-239 -776.5,298 -237.3,-168 -5463.6,-652 -367.9,156 -436.1,-75 -2569.8,400 -967.5,-245 -345.5,-298 -2743.9,-235 -1974,-406 -692.8,233 -583.7,-116 -268.6,113 -224.1,-159 -1485.2,440 -3416.6,-868 -1107.5,-329 -484.5,-491 -1336.9,-134 -6617.7,-2450 -870.5,-718 -950.2,-507 -828.3,-814 -3921,-2145 -2209.5,-1492 -644.1,168 -974,-1394 -1048.5,-696 -6389.4,-3134 -712.3,44 -972.3,-284 -1496.4,114 -1206.9,749 -1529.1,570 -2060.5,1337 -308.9,436 679.7,1929 913.6,1430 19.3,583 1814.7,1407 2246.4,1029 3523.9,2848 1249.8,1711 88.8,739 -156.4,458 601.5,1013 890,1056 482.4,280 1238.2,1914 -60.4,645 758.6,1161 255.8,898 762.8,579 2169.4,801 1321.1,1083 688.7,273 3320.8,575 2827.8,733 3308.9,2990 859.5,1963 1383.3,1646 1642.5,911 2104.2,-720 364.3,156 638.8,-39 2320,-1821 1565.7,-255 876.3,57 1702.8,636 1556.4,156 4591.8,961 1590.8,560 2723.5,1612 1608.7,1412 1300.6,464 1694,-59 599.4,266 1208.8,1681 2073.3,234 896.5,298 -1405.9,974 133.3,594 1128.2,-469 387.8,291 248.6,-44 115.9,-293 854.7,-86 -22.7,1521 354.1,98 834.2,-247 646.7,-428 220,70 157.3,640 880.9,171 1016.6,-657 30.7,-427 517.3,115 779,-408 419.7,-6 148.7,-153 -98.2,-373 471.4,-105 217.8,951 509.6,-29 547.5,377 241.2,-25 323.9,-599 569.9,-76 523.7,-303 624.6,-631 -370,-904 410.4,-237 -371.9,-309 -643.5,74 -188.9,-112 -22.4,-1028 518,-189 134.6,-644 309.1,-409 1248.6,-487 351.9,-638 -49.8,-431 z" />
    <path
       style="stroke:#000000;stroke-width:88.04482524;stroke-miterlimit:4;stroke-opacity:0.43137255000000002;stroke-dasharray:none"
       id="path13"
       d="m -146402,4258059 -271.5,-420 -54.1,-1625 -634.9,-419 -501.9,-666 -689.4,-257 -15.1,-326 -384,-517 194.7,-881 -269.1,-211 296.8,-524 -1261.5,-1465 -778,-371 -375.7,-1064 -710.4,-254 295.5,-243 -64.5,-441 -1138.6,-334 -1220.8,25 -1129.2,-485 -275.6,-294 -576,129 -483.6,-401 -371.2,90 -590.9,-206 -1487.6,123 -629.5,-230 -879.7,-953 -577.3,-173 -766.5,-658 -1118.7,-88 -250.8,-100 -136.8,136 -3457,-1178 -1597.9,-2582 -1271.1,378 -2779.8,168 -123.8,222 -1539.2,629 -318.6,446 -1392.8,412 -765.4,-10 379.4,458 -369.1,466 1159.2,3554 -613.6,6061 -1168.7,3174 626,685 3053.5,1427 1508,961 699.8,1106 502,360 262,2 1587,870 429.5,419 4292.1,2096 3118.4,-414 2310.2,-1237 4845.9,-1963 1759.9,-628 1807.7,-412 1058.2,-713 2092.8,-1041 761.3,-613 z" />
    <path
       style="stroke:#000000;stroke-width:88.04482524;stroke-miterlimit:4;stroke-opacity:0.43137255000000002;stroke-dasharray:none"
       id="path15"
       d="m -137193,4221024 1635,476 1028.5,91 -219.7,-656 421,37 654.9,-227 551,284 -62.4,-435 457.7,-734 -870.3,-400 205.5,-501 -121.8,-244 1114.4,449 261.6,-303 -1464.7,-1920 -1175.9,830 -846,990 225.8,75 -810.1,829 -1377.2,-822 -1117.3,-448 -2786.9,2674 43,185 702.2,346 113.5,267 1170.8,351 2267.4,-1194 z" />
    <path
       style="stroke:#000000;stroke-width:88.04482524;stroke-miterlimit:4;stroke-opacity:0.43137255000000002;stroke-dasharray:none"
       id="path17"
       d="m -203201.3,4219576 255.2,117 537.6,248 347.4,-33 1257.5,-872 1720.1,-873 1405.2,-465 3801.6,-559 1418.2,465 1404.3,-928 24.6,-260 962.3,-878 653.6,-223 694.9,-683 922,-1484 1786.7,-1173 -505.6,-1985 1594.3,-1839 -681.1,-4366 475.6,-1641 346.7,-310 371.1,-1047 138.4,-1068 -365.9,-415 195.2,-305 -352,-694 139.6,-1423 433.7,-995 1520.8,-1894 1121.4,351 578.9,683 657.7,-382 1148.9,730 746.1,101 4507.6,-1222 1750.1,-1515 717.7,-1985 3387.2,-4369 277,-77 3922.4,1473 516,-163 1017.8,37 1001.3,-1541 -146.5,-499 -281,-65 184,-481 335.4,-289 385.6,-296 -481.6,-140 113.7,-407 -226.4,-1262 -2395.2,-661 1596.1,-894 1273.2,-2848 387.6,-1392 -725.7,-1068 -526.7,-95 -469.1,-1087 845,-871 745.8,-259 734.2,-1414 920.7,178 4050.7,-2629 -548.6,-783 23.6,-248 -259.6,-148 -1397,-3 -619.3,-449 -735.9,42 -104.3,-177 -1267.5,-318 -250.6,-382 -401.5,-23 -759.4,-368 -801.7,-656 -94.9,-349 -389.3,-154 -427.1,-852 -379.3,140 -2130.5,1736 -1947.9,592 -487.8,376 -417,720 -877.6,514 -346.2,1064 330.2,550 513.8,31 -692.3,2015 327.5,1363 -1889.3,1115 -866.1,45 -566.2,-449 -1145,-263 -451.3,-371 -810.3,-4 -1211.1,-635 133.5,-197 -319.5,-329 -2413.2,-1235 -52.9,-750 -871,-33 -422.5,-203 -44.3,667 -1332.4,327 -829.5,-593 -681.1,-244 -329.6,-630 397.7,-404 -552.6,-794 -2101.3,-1215 -487.3,-116 -393.7,-511 44.2,-273 -596.7,-546 160.9,-214 -269.5,-174 -30.8,-462 -771.6,-282 -88.7,-184 224.4,-324 -425.3,-673 414.2,-172 -837.3,-1035 389.2,-526 -227.5,-293 990.6,-1408 -173.9,-250 255.4,-265 -1989,-1054 -3562.9,2401 -4752.2,484 -1830,580 -1717.5,-71 312.4,-2010 -4036,2373 -359.4,654 1475.3,734 687.8,905 -67.5,269 720.4,726 320.6,86 173.1,454 988.4,494 26.9,901 1455.7,1155 -67,289 334.9,339 1066,287 153.2,217 206.1,-82 425.3,783 551.6,427 567.7,-50 638.1,481 916.6,-405 91,2747 1221.9,315 902.5,92 524,-120 1405.2,274 315.9,2051 1294,298 -491.7,750 -733.5,533 -550,885 -2.8,345 -1196,-431 -1682.3,203 -552,-262 -527.2,21 -1064.5,-265 -2551.7,394 -966.4,340 -952.1,-331 -129.1,-511 -1469.7,-1068 -1100.8,-440 -1254.5,-937 -831.3,525 -911.2,1 -1027.6,292 -567.3,-56 -431.5,-153 -468,-488 -746.9,-286 -179.5,-726 139.2,-201 -501.6,-304 -242.5,-567 -1057.9,10 -255.9,-203 6.4,-332 -220.9,-50 222.6,-261 -596.3,-516 -982.1,-227 -4177,4825 -182.6,354 183,662 -189.6,393 -1048.8,454 -545,1011 -751.1,511 -188.6,749 -314.3,323 -45.3,928 -637.1,941 -588.6,-210 -338.5,777 -687.5,591 -627.5,1502 -475,482 239,1481 -193.2,635 121.5,698 -242.7,236 495.9,1170 54,929 397.5,305 463.5,49 452.7,563 -744.9,2193 -238.7,2039 -461.4,981 792,3330 581.7,1566 -337.2,460 470.7,2027 768.6,1341 1219.5,764 320.8,904 213.6,275 -94.1,955 4254.7,2704 4563.5,2617 4956,3589 2193.7,799 z" />
    <path
       style="stroke:#000000;stroke-width:88.04482524;stroke-miterlimit:4;stroke-opacity:0.43137255000000002;stroke-dasharray:none"
       id="path19"
       d="m -78551.32,4192732 -195.366,169 65.831,333 233.561,49 268.771,-195 -372.797,-356 z" />
    <path
       style="stroke:#000000;stroke-width:88.04482524;stroke-miterlimit:4;stroke-opacity:0.43137255000000002;stroke-dasharray:none"
       id="path21"
       d="m -109854.8,4178486 294.8,-553 -227,-484 372.4,-97 283.5,-315 -368.9,87 -350.2,-383 -481.9,521 -490.1,117 -11.7,-293 -1163.8,155 110.1,-215 -439.1,-275 72.2,-362 -203.3,-405 -857.9,9 -319.6,-139 -704,597 -1248.3,5 -186.5,182 -305.3,-124 -316.2,230 -884.3,163 -245.7,-350 -1066.2,41 -300.4,356 -303.8,74 -233.7,-226 -306.3,-19 -200.1,-440 -1153.8,-339 -326.3,-455 -937.4,-297 -700.2,126 -436.1,-428 -868.3,-355 68.6,-223 -256.6,-43 74.1,-357 -284.8,81 -351.8,-582 202,-525 958.3,-262 1071.6,-1046 -447.4,-138 -1011.9,23 -38.6,366 -679,207 -2140.6,113 -169.6,158 -667.3,-230 -44.7,180 -1288.2,-3 -709.3,467 -282.7,479 466,279 155.4,542 -1068.3,871 -409,204 -803,220 -1209.1,452 -899.7,-50 -986.7,313 -986.2,-249 496.9,1150 -215.8,507 885.8,513 -81.4,491 216.2,409 580,147 -402.6,691 409.2,371 -298.2,690 262.1,59 73.1,267 -796.1,1039 766.7,462 537.6,-321 444.8,169 1431.3,25 167,288 1090.8,678 130.2,225 -177,178 131.8,343 -171.5,1169 554.1,197 3230.3,3226 943.7,588 458.9,-147 212.6,586 575.1,412 202.2,1073 -186.5,52 -38.9,404 286,1443 324.9,129 584.2,-85 608.5,-863 1209.2,-199 629.8,-416 636.7,-99 2061.2,140 1259.1,656 428.7,44 1200,-60 2338.8,368 1700.1,-689 738.3,73 970.4,453 694.1,-165 1052.3,69 651.2,-252 1210.5,3 2037.8,282 1975.6,-148 617.8,-224 1982.578,-74 2320.908,257 815.848,-215 891.753,100 348.436,-950 1740.462,-1670 738.394,-1176 638.457,-535 394.655,-813 2442.624,-1898 1682.613,-779 1111.605,-316 500.868,30 1537.178,-696 964.77,-39 54.193,-541 325.813,-263 831.326,-245 674.795,-7 684.653,236 470.064,421 -87.495,270 205.489,171 68.017,740 228.981,32 -379.766,475 22.74,537 -309.365,225 -403.378,14 -658.555,235 305.092,626 700.448,81 293.385,-458 468.874,-117 -207.326,-146 258.882,-638 944.903,-1512 878.17,-888 705.02,-295 825.307,463 -60.858,-313 -454.011,-413 -767.718,98 -185.236,-169 -120.71,-403 -546.977,-427 8.451,-176 -371.114,-359 -363.65,48 -37.174,-391 -376.399,-492 78.428,-317 -934.635,-184 -887.58,-460 -1821.905,-350 -1365.821,40 -439.156,-207 -430.254,94 -651.921,-378 -272.243,156 -408.094,-96 -628.911,-368 -51.751,-386 -2192.513,-304 -1215.945,-1082 -1271.457,372 -1031.067,-103 -178.989,338 153.779,184 -122.634,329 124.702,1829 -811.174,641 -628.479,120 -88.736,855 -1091.351,580 -129.884,216 -458.709,73 62.474,338 -360.533,208 -612.106,-7 -463.557,1062 -1779.091,284 -749.307,494 -688.7,-124 -718.2,-592 -563.8,-75 -704.1,-370 259.3,-319 57.2,-1117 302,-411 2272.8,628 268.521,-301 9.069,-482 1066.135,-1125 141.838,-639 790.825,-564 179.619,120 219.445,-340 674.432,126 154.489,-2131 -381.157,49 -143.592,215 -315.937,-47 -136.452,-151 93.194,-751 -397.452,6 -902.865,-336 -161.459,165 -303.067,-39 -432.458,-301 -818.228,-193 -99.9,-242 -402.9,-190 -593.8,0 -443.8,-574 -1002.9,445 -422.7,-47 -580.1,224 -1568.7,-263 -336.6,248 -802,162 177.9,207 1463.7,563 266.7,272 -416.8,36 -358.9,-197 -81,487 -330.3,74 -168.2,-125 -73.8,200 -812.7,-85 -137.8,118 -259.6,-199 -45.3,183 -644.5,178 -16.9,491 -385.4,128 406.1,730 338.8,331 -128.6,131 -28.2,446 -267.4,208 -1549.1,-214 z m 0,0 -149.7,471 -325.8,10 80.9,-540 394.6,59 z" />
    <path
       style="stroke:#000000;stroke-width:88.04482524;stroke-miterlimit:4;stroke-opacity:0.43137255000000002;stroke-dasharray:none"
       id="path23"
       d="m -148907.2,4192595 1669.4,-2807 704.1,-695 877.6,-1707 2067.9,-437 4863.8,-1671 2803.7,-2563 900.5,-319 52.7,-220 796.1,-1039 -73.1,-267 -262.1,-59 298.2,-690 -409.2,-371 402.6,-691 -580,-147 -216.2,-409 81.4,-491 -885.8,-513 215.8,-507 -496.9,-1150 -159.2,340 -817.8,-47 -324.8,210 -861.2,-124 -306.2,-444 -650.1,-248 -476.9,-484 -0.7,-408 502.7,-184 -386.3,-327 -744.2,83 -265.2,228 -707,-159 -367.8,-341 -28.6,288 -248.2,91 -977.8,-117 -188.7,110 -1396.3,69 -79.7,146 -1395.1,180 -506,-286 -38.5,246 -628.6,-36 -678.1,-390 -95.6,-277 -772.6,49 -1802.2,-828 -2193.7,-2071 -593.8,-68 -692.9,-518 -312.6,-34 -739,-856 -4050.7,2629 -920.7,-178 -734.2,1414 -745.8,259 -845,871 469.1,1087 526.7,95 725.7,1068 -387.6,1392 -1273.2,2848 -1596.1,894 2395.2,661 226.4,1262 -113.7,407 481.6,140 -385.6,296 -335.4,289 -184,481 281,65 146.5,499 -1001.3,1541 2991.6,1372 4334.6,1461 2991.8,1851 3125.3,256 z" />
    <path
       style="stroke:#000000;stroke-width:88.04482524;stroke-miterlimit:4;stroke-opacity:0.43137255000000002;stroke-dasharray:none"
       id="path25"
       d="m -124331.7,4305251 461.3,-3077 7872.7,-5349 1254.5,-600 854,-106 221.9,-1734 891.5,-550 432,-3263 1184.8,-3657 -850.1,-1543 -788.8,-2436 -1105,-1618 1369.1,-2825 -3097.5,-3040 -2927.4,-2155 -1518.7,-943 -1372.8,-391 -2248.2,455 -985.2,604 -1856.6,551 -1735.6,2112 -3173.2,3141 -3389.4,3934 -1682.5,1633 -1949.5,3114 -3555.8,3137 -1633.8,1017 -5442.4,6884 1540.9,553 85.6,275 1774.3,1179 2842.3,1085 1812.8,1667 525.4,792 1811.7,1214 397.9,-43 353.3,277 1446.5,426 2711.3,377 2365.4,746 7103.3,-1843 z" />
    <path
       style="stroke:#000000;stroke-width:88.04482524;stroke-miterlimit:4;stroke-opacity:0.43137255000000002;stroke-dasharray:none"
       id="path27"
       d="m -151744.2,4301526 2641.8,-2980 5442.4,-6884 1633.8,-1017 3555.8,-3137 1949.5,-3114 1682.5,-1633 3389.4,-3934 3173.2,-3141 1735.6,-2112 1856.6,-551 985.2,-604 2248.2,-455 2007.4,-740 -993,-286 -374.2,-2841 176.8,-583 -150.6,-3397 408.5,-2358 -4104.4,-2734 -2315.7,-625 -412.6,-479 -406.5,-38 -1479.1,-836 -669.4,-187 52.8,-177 -607,-335 -686.2,2 -696.1,-545 -589.4,-95 -658.3,-308 -650.6,411 -768.7,878 -684.7,114 -250.4,312 -1899.6,229 -1959.4,1501 -595.7,-350 -1009.4,-109 -964.3,128 -767.2,297 -610.1,-161 -701.7,-485 -476.3,176 -624,-49 -756.4,-381 -736.3,146 -761.3,613 -2092.8,1041 -1058.2,713 -1807.7,412 -1759.9,628 -4845.9,1963 -2310.2,1237 -3118.4,414 396.6,3612 -327.8,1361 -54.9,3869 -246.2,1195 -24.4,1572 -1053,3870 -916.9,1821 740.3,2172 495,1287 2302.7,1398 1582.5,673 438.2,3401 593.9,2668 -520.7,1438 2830.6,3052 2225.6,1610 2082.6,956 1868.1,491 z" />
    <path
       style="stroke:#000000;stroke-width:88.04482524;stroke-miterlimit:4;stroke-opacity:0.43137255000000002;stroke-dasharray:none"
       id="path29"
       d="m -117482.6,4261700 3369.5,-809 4339.9,-2015 531.8,-1498 1392.9,-1819 482.6,-2060 -44.2,-1812 -939.3,-1676 -1388.5,-4580 -1184.4,-1775 -605.6,-1273 -437.2,-588 -3095.6,-3272 -4240.2,3376 -2005.1,1965 -775.9,1098 -91.7,524 -1144.6,1079 -2305.6,4737 -70.8,1802 -1100.8,5296 2315.7,625 4104.4,2734 2892.7,-59 z" />
    <path
       style="stroke:#000000;stroke-width:88.04482524;stroke-miterlimit:4;stroke-opacity:0.43137255000000002;stroke-dasharray:none"
       id="path31"
       d="m -146402,4258059 736.3,-146 756.4,381 624,49 476.3,-176 701.7,485 610.1,161 767.2,-297 964.3,-128 1009.4,109 595.7,350 1959.4,-1501 1899.6,-229 250.4,-312 684.7,-114 768.7,-878 650.6,-411 -1458.5,-1341 -276.8,-615 -1537.5,-223 -328.4,-760 -409.3,-272 -422.1,87 -1141.6,-1202 -2651.2,348 -1905.9,-36 -1501.4,-224 -2615.2,-1725 -909.6,-853 -1806.4,-2567 -2281.1,-981 -379.7,-9 -1186.4,584 -126.4,-146 253.5,-417 -367.9,-110 -568.3,-798 -777.9,172 -616.2,-1142 -2283,-787 -1023.6,-106 -1505.8,180 -2036.5,1199 -59.9,1262 1118.7,88 766.5,658 577.3,173 879.7,953 629.5,230 1487.6,-123 590.9,206 371.2,-90 483.6,401 576,-129 275.6,294 1129.2,485 1220.8,-25 1138.6,334 64.5,441 -295.5,243 710.4,254 375.7,1064 778,371 1261.5,1465 -296.8,524 269.1,211 -194.7,881 384,517 15.1,326 689.4,257 501.9,666 634.9,419 54.1,1625 271.5,420 z" />
    <path
       style="stroke:#000000;stroke-width:88.04482524;stroke-miterlimit:4;stroke-opacity:0.43137255000000002;stroke-dasharray:none"
       id="path33"
       d="m -132947.2,4255402 658.3,308 589.4,95 696.1,545 686.2,-2 607,335 -52.8,177 669.4,187 1479.1,836 406.5,38 412.6,479 1100.8,-5296 70.8,-1802 2305.6,-4737 1144.6,-1079 91.7,-524 775.9,-1098 2005.1,-1965 4240.2,-3376 672.2,-2395 -2657.9,920 -5182.9,-1181 -1201,219 -1010.7,-116 -1160.2,389 -180.3,1130 -286.2,62 -106.9,336 340.6,33 -411.7,359 -66.2,388 -279.7,126 -45.6,348 -319.5,4 -161.1,298 -623.1,284 -2907.5,3994 -847.1,2115 -338.3,328 -1073.8,2154 -1774.9,5128 276.8,615 1458.5,1341 z" />
    <path
       style="stroke:#000000;stroke-width:88.04482524;stroke-miterlimit:4;stroke-opacity:0.43137255000000002;stroke-dasharray:none"
       id="path35"
       d="m -191075.7,4252387 -226.2,139 -42.5,332 -233.7,151 -597.3,132 115.9,674 -308.6,447 1474.9,199 917.5,-64 173.4,393 -347.5,328 37.4,316 387.8,301 346.7,-298 509,179 311.7,-904 573.8,-99 170.4,430 616.7,587 -31.4,580 1361.3,225 418.3,1530 3833.2,-296 142.6,145 615.7,-176 1623.3,342 348.8,225 1137,96 1257.2,-462 -626,-685 1168.7,-3174 613.6,-6061 -1159.2,-3554 -2969,-1581 -1837.2,-1360 -1560.6,-153 -625.9,384 -7051.8,2044 -1374.5,207 -1853.5,-45 -152.9,847 100.6,2460 732.7,2289 -59.2,1197 651.2,352 422.1,461 294.1,-32 463.1,696 238.3,256 z m 0,0 627,-244 -170.5,276 -456.5,-32 z" />
    <path
       style="stroke:#000000;stroke-width:88.04482524;stroke-miterlimit:4;stroke-opacity:0.43137255000000002;stroke-dasharray:none"
       id="path37"
       d="m -134682.5,4253446 -833.2,-3790 146.8,-1528 -1601.3,-1384 -362.1,-1430 -1830.6,193 -7326.4,-2584 -1163.2,-102 -519.3,-1354 -116,-361 -1285.6,-24 -586.3,157 -498.6,277 -1316.4,186 -1058.1,857 -125.2,305 -406.5,-79 -502,191 -103.2,557 -1791.8,-361 616.2,1142 777.9,-172 568.3,798 367.9,110 -253.5,417 126.4,146 1186.4,-584 379.7,9 2281.1,981 1806.4,2567 909.6,853 2615.2,1725 1501.4,224 1905.9,36 2651.2,-348 1141.6,1202 422.1,-87 409.3,272 328.4,760 1537.5,223 z" />
    <path
       style="stroke:#000000;stroke-width:88.04482524;stroke-miterlimit:4;stroke-opacity:0.43137255000000002;stroke-dasharray:none"
       id="path39"
       d="m -134682.5,4253446 1774.9,-5128 1073.8,-2154 338.3,-328 847.1,-2115 2907.5,-3994 623.1,-284 161.1,-298 319.5,-4 45.6,-348 279.7,-126 66.2,-388 411.7,-359 -340.6,-33 106.9,-336 286.2,-62 180.3,-1130 -466.3,-2532 -236.4,-225 167.9,-325 -118.1,-1064 -1757,-631 116,-983 -852.5,-198 -116.1,-233 56.1,-442 366.5,-383 -462.9,-26 45.9,-292 -601.5,-148 -812.7,-1357 -591.6,-108 159.5,-364 -228.5,-120 319.9,-584 -96.8,-838 -872.9,-636 -446.7,109 -269.4,-198 -361.2,33 -625.8,-1154 -623.5,-191 -1096.5,87 -283.7,203 438.3,484 101.2,312 -141.7,107 -480.1,89 186.9,661 443,-1 234.6,222 -707.4,586 -72.7,340 342.7,241 -109.9,222 -297.8,98 -362.2,-107 -212.3,486 895.7,539 285.3,482 -117.1,132 -1366.4,216 -438.3,-214 -310.1,272 324.4,218 -33.8,173 -458,390 -502.7,1010 -292.3,282 -349.1,-244 -410.7,204 199.8,512 652.6,534 361.5,704 1206.2,1306 191.3,1155 -763.4,719 -405.1,23 -434.1,557 -1483.2,371 -177.7,206 -599.3,174 -283.7,494 -375.2,-101 38.2,487 -816.8,744 7.4,691 308,151 -31.2,503 696.1,207 -170.4,140 291.8,113 -112.6,171 218.5,17 174.4,449 1333.6,656 206,550 649.1,559 456.8,792 29.1,1471 362.1,1430 1601.3,1384 -146.8,1528 833.2,3790 z" />
    <path
       style="stroke:#000000;stroke-width:88.04482524;stroke-miterlimit:4;stroke-opacity:0.43137255000000002;stroke-dasharray:none"
       id="path41"
       d="m -148171.8,4241467 519.3,1354 1163.2,102 7326.4,2584 1830.6,-193 -29.1,-1471 -456.8,-792 -649.1,-559 -206,-550 -1333.6,-656 -174.4,-449 -218.5,-17 112.6,-171 -291.8,-113 170.4,-140 -696.1,-207 31.2,-503 -308,-151 -7.4,-691 -395,-564 -1641,-821 -249.3,-361 -505.3,80 -722.3,563 -208.3,37 -269,-284 -332.9,79 -804.2,1256 -342.3,224 -946.3,-900 -245.9,57 -538.4,633 1657.8,848 -304.7,376 229.1,590 -197.2,305 -967.7,505 z" />
    <path
       style="stroke:#000000;stroke-width:88.04482524;stroke-miterlimit:4;stroke-opacity:0.43137255000000002;stroke-dasharray:none"
       id="path43"
       d="m -155961.5,4243172 1791.8,361 103.2,-557 502,-191 406.5,79 125.2,-305 1058.1,-857 1316.4,-186 498.6,-277 251.3,-503 -45,-1096 309.7,-885 -219.3,-557 -774.4,-153 -250.3,87 -361.9,-248 -298.3,99 -224.9,-417 -1006.9,-121 -118.8,-153 -1011.9,48 -2174.5,-407 -1355.9,-1848 -1832.6,782 -3095.1,329 -1727.8,-176 -235.9,360 -639,-125 -618.2,392 -1659.2,2498 -1064.2,2051 1597.9,2582 3457,1178 136.8,-136 250.8,100 59.9,-1262 2036.5,-1199 1505.8,-180 1023.6,106 2283,787 z" />
    <path
       style="stroke:#000000;stroke-width:88.04482524;stroke-miterlimit:4;stroke-opacity:0.43137255000000002;stroke-dasharray:none"
       id="path45"
       d="m -181299.4,4241424 1837.2,1360 2969,1581 369.1,-466 -379.4,-458 765.4,10 1392.8,-412 318.6,-446 1539.2,-629 123.8,-222 2779.8,-168 1271.1,-378 1064.2,-2051 1659.2,-2498 618.2,-392 639,125 235.9,-360 1727.8,176 3095.1,-329 -658.6,-387 933.9,-1438 1395.9,-1741 3402.4,-3392 -1285,-558 -479.2,-719 172.8,-2125 547.3,-2196 938.7,-1179 3206.1,591 68.5,-3118 213.8,-797 -499.8,-458 -467.8,296 -464.2,-854 -663.4,27 -197.8,-251 -549.5,147 -96.4,-302 300.9,-867 1086.3,-746 217,-535 -1426.6,-995 -1010.6,-196 -2037.5,-1266 -6093.2,-749 -1700.9,-410 -1848.7,-783 -723,-133 -2668.2,174 -496.2,-105 -295.3,-296 -1428.2,55 -1066.8,318 -422.5,-219 -397.3,40 -1148.6,796 -1474,251 -1414.2,-325 -1209.7,-544 -3290.4,-2373 -1367.5,-784 -1250.5,430 -1594.3,1839 505.6,1985 -1786.7,1173 -922,1484 -694.9,683 -653.6,223 -962.3,878 -24.6,260 -1404.3,928 378.3,369 579.4,222 291.6,551 827.7,674 1296.8,932 3407.8,1561 -87.5,274 1046.8,564 194.5,677 3361.7,3666 730,500 603.4,1043 116.4,664 356.2,217 -1167,3702 -777,8204 z m 12734.3,-24122 1127.5,647 768.4,-525 3841.1,1449 -634.4,578 -639.6,1067 214.7,594 -139.4,1028 -381,978 -227.3,148 -389.9,366 -629.2,182 1.9,215 -1467.6,725 -623,-321 -192.5,437 -480.2,-587 -350.9,-139 -479.2,157 -86.6,-346 263.6,-108 97.6,-500 -270.8,-561 88.6,-255 -233.9,-116 208.4,-210 -298.8,-132 155.2,-148 -140.8,-522 373.2,-194 -373,-114 13.9,-508 -665.8,-77 280,-166 -418.7,-127 288.6,-246 -833.7,-378 88,-535 -240.9,-155 236.3,-144 195.1,-813 757.2,-87 438.8,122 759.1,-679 z" />
    <path
       style="stroke:#000000;stroke-width:88.04482524;stroke-miterlimit:4;stroke-opacity:0.43137255000000002;stroke-dasharray:none"
       id="path47"
       d="m -181299.4,4241424 777,-8204 -2212.5,694 -2350.3,-31 -3921.7,-2316 -1168.9,-903 -941.3,-1020 88.9,-2163 -249.4,-1374 261.3,-991 852.1,-1230 -402.6,-223 435,-169 448.4,-705 360.5,-158 -703.4,-265 344.6,-920 -293.7,-1526 -406.1,-500 -827.7,-674 -291.6,-551 -579.4,-222 -378.3,-369 -1418.2,-465 -3801.6,559 -1405.2,465 -1720.1,873 -1257.5,872 -347.4,33 -537.6,-248 -167.4,474 311,382 -267.9,1054 484.9,2471 -691.8,2509 -318,3649 581.3,4114 1628.6,1015 88.2,1528 -584.1,576 868.2,2080 928.6,11 1004.2,753 1048.5,503 485.6,65 64.7,378 1363.1,1392 1734.9,1075 617.8,139 1853.5,45 1374.5,-207 7051.8,-2044 625.9,-384 1560.6,153 z" />
    <path
       style="stroke:#000000;stroke-width:88.04482524;stroke-miterlimit:4;stroke-opacity:0.43137255000000002;stroke-dasharray:none"
       id="path49"
       d="m -148171.8,4241467 967.7,-505 197.2,-305 -229.1,-590 304.7,-376 -1657.8,-848 538.4,-633 -95.5,-184 562.2,-647 -835.3,-1993 321.8,-1518 -248.4,-1061 705.9,-497 334.2,-850 -450.5,-752 -27.3,-643 -184.1,-134 -2235.9,674 -772.1,426 -1529.2,343 -565.2,279 -814,92 -4.8,474 -979.8,736 -155.9,347 185.6,895 -334,85 -310.4,356 -1411.6,133 -545.8,314 1355.9,1848 2174.5,407 1011.9,-48 118.8,153 1006.9,121 224.9,417 298.3,-99 361.9,248 250.3,-87 774.4,153 219.3,557 -309.7,885 45,1096 -251.3,503 586.3,-157 1285.6,24 116,361 z" />
    <path
       style="stroke:#000000;stroke-width:88.04482524;stroke-miterlimit:4;stroke-opacity:0.43137255000000002;stroke-dasharray:none"
       id="path51"
       d="m -145379.1,4237494 -72.1,-758 -289.8,-90 350.7,-567 -995.2,-503 -265.2,-398 -317.1,-508 121.2,-631 -294.4,-184 -30,-592 1309.5,-33 819.7,-394 63.4,-382 -592.9,-164 30.4,-387 142,-600 -1064.9,-1300 -1319.8,62 27.3,643 450.5,752 -334.2,850 -705.9,497 248.4,1061 -321.8,1518 835.3,1993 -562.2,647 95.5,184 245.9,-57 946.3,900 342.3,-224 804.2,-1256 332.9,-79 z" />
    <path
       style="stroke:#000000;stroke-width:88.04482524;stroke-miterlimit:4;stroke-opacity:0.43137255000000002;stroke-dasharray:none"
       id="path53"
       d="m -255291.9,4223490 1496.4,-114 972.3,284 712.3,-44 6389.4,3134 1048.5,696 974,1394 644.1,-168 2209.5,1492 3921,2145 828.3,814 950.2,507 870.5,718 6617.7,2450 1336.9,134 484.5,491 1107.5,329 3416.6,868 1485.2,-440 224.1,159 268.6,-113 583.7,116 692.8,-233 1974,406 2743.9,235 345.5,298 967.5,245 2569.8,-400 436.1,75 367.9,-156 5463.6,652 237.3,168 776.5,-298 339.9,239 822.7,-28 -868.2,-2080 584.1,-576 -88.2,-1528 -1628.6,-1015 -581.3,-4114 318,-3649 691.8,-2509 -484.9,-2471 267.9,-1054 -311,-382 167.4,-474 -255.2,-117 -2193.7,-799 -4956,-3589 -4563.5,-2617 -4254.7,-2704 94.1,-955 -213.6,-275 -910.3,600 -586.5,-14 -747.9,750 -463.9,-476 -485.4,86 -142.4,405 -1915.9,-1345 -410.1,42 -1537.2,721 -351.2,-190 -399.2,104 68,177 -504.6,370 -622.4,144 -444.7,-86 -297.2,379 -908.5,114 -381.3,-77 -393.1,-609 -798.1,-666 -139.3,278 -1397.6,311 -566.1,412 -507.8,17 170.5,520 -446.1,521 -837.4,373 -569.3,695 -757.9,-57 -570.5,-253 -1837.2,-44 108,-177 -671.8,-493 -856.5,149 -837.8,-433 -1408.5,1436 -29.2,225 -2525.4,1437 -1559.8,648 -72.8,168 -594.6,-29 -205.8,275 -927.9,265 -1723.9,1229 -600.5,1151 -887.2,334 -824,724 -292.8,67 -2313.5,3353 -88.6,1322 z" />
    <path
       style="stroke:#000000;stroke-width:88.04482524;stroke-miterlimit:4;stroke-opacity:0.43137255000000002;stroke-dasharray:none"
       id="path55"
       d="m -140610.3,4237613 -648,-2525 -706.7,130 190.7,-407 -1471.1,-526 -305,-690 -1491.4,-759 -819.7,394 -1309.5,33 30,592 294.4,184 -121.2,631 317.1,508 265.2,398 995.2,503 -350.7,567 289.8,90 72.1,758 269,284 208.3,-37 722.3,-563 505.3,-80 249.3,361 1641,821 395,564 816.8,-744 -38.2,-487 z" />
    <path
       style="stroke:#000000;stroke-width:88.04482524;stroke-miterlimit:4;stroke-opacity:0.43137255000000002;stroke-dasharray:none"
       id="path57"
       d="m -140610.3,4237613 375.2,101 283.7,-494 599.3,-174 177.7,-206 1483.2,-371 434.1,-557 405.1,-23 763.4,-719 -191.3,-1155 -1206.2,-1306 -361.5,-704 -652.6,-534 -199.8,-512 -378.2,24 -251.8,545 -632.1,167 194.7,1213 -690.9,470 361.3,274 -274.3,246 -605,138 -281.6,744 -516.4,31 -190.7,407 706.7,-130 648,2525 z" />
    <path
       style="stroke:#000000;stroke-width:88.04482524;stroke-miterlimit:4;stroke-opacity:0.43137255000000002;stroke-dasharray:none"
       id="path59"
       d="m -122229.3,4235867 5182.9,1181 2657.9,-920 30.2,-2086 898.9,-2431 1314.8,-1739 -4161.4,-2204 -1560.8,2130 -621.3,458 -784.8,119 -328.8,-123 -1237,411 -127,963 -353.7,722 145,266 381.4,48 -1066.5,1725 -824.9,644 78,368 389.6,218 -12.5,250 z" />
    <path
       style="stroke:#000000;stroke-width:88.04482524;stroke-miterlimit:4;stroke-opacity:0.43137255000000002;stroke-dasharray:none"
       id="path61"
       d="m -125601.2,4236359 1160.2,-389 1010.7,116 1201,-219 12.5,-250 -389.6,-218 -78,-368 824.9,-644 1066.5,-1725 -381.4,-48 -145,-266 353.7,-722 127,-963 1237,-411 328.8,123 784.8,-119 621.3,-458 1560.8,-2130 4161.4,2204 423.2,-508 887.3,-395 -217.7,-227 -499.2,40 -299.1,-476 -688.4,21 362.5,-596 -454.6,-703 355.4,-62 1294.8,-1085 -269.7,-237 1237.1,-1932 2802,952 773.1,-1520 2765.1,-3348 1429.5,-2710 2349.884,-2374 4774.162,-4215 657.243,-385 -215.797,-167 251.605,-863 -362.5,-865 -1231.697,-45 -878.436,-544 -381.828,-495 -1111.308,-655 -897.756,99 -1899.772,-768 -804.9,-686 -1977.2,-707 -5042,-831 -847.9,1643 -1305.5,1270 -784.4,-705 -869.2,-386 -490.9,-506 -312.7,-1350 -536.9,-681 -708.2,-520 -649.6,-313 -450.8,-7 -687.3,-594 -814.5,-353 -1914,-1569 522.7,-1351 -1056.6,-115 -489.8,382 -180.7,-109 -1060.4,569 -535,-786 -623.2,56 -531.6,-514 -718,-153 -1015.4,-539 -148,-817 -1505.8,-486 -507,711 -766.1,443 -438.1,800 -897.3,603 540.5,1644 -1800.6,1248 -1228.4,1279 -1242.9,-908 -1343.7,-441 -1531,421 764.3,601 -492.7,883 -1107.2,1164 -1900,552 5.2,276 -1354.8,1298 -823.4,168 -639,3358 -880.1,2907 1106.1,758 -304.5,390 -1436.5,639 -1005.5,916 -2097.3,679 -988.5,22 -1432.7,783 -503,-267 -1676.6,-154 -174.9,-188 93.3,-465 -353.1,-577 -1008.7,71 -217,535 -1086.3,746 -300.9,867 96.4,302 549.5,-147 197.8,251 663.4,-27 464.2,854 467.8,-296 499.8,458 -213.8,797 -68.5,3118 998.2,1509 197.3,1010 3532,1265 660.1,-531 -490.2,-63 -552.8,-366 -720.4,-892 877.9,-695 3001.2,-875 1102.1,151 1242.7,-331 735.2,208 1379.6,2 953.7,-348 163.2,263 -321.5,107 16.3,155 1501.4,643 740.8,542 1190.6,185 141.7,-107 -101.2,-312 -438.3,-484 283.7,-203 1096.5,-87 623.5,191 625.8,1154 361.2,-33 269.4,198 446.7,-109 872.9,636 96.8,838 -319.9,584 228.5,120 -159.5,364 591.6,108 812.7,1357 601.5,148 -45.9,292 462.9,26 -366.5,383 -56.1,442 116.1,233 852.5,198 -116,983 1757,631 118.1,1064 -167.9,325 236.4,225 466.3,2532 z m -11591.8,-15335 -2267.4,1194 -1170.8,-351 -113.5,-267 -702.2,-346 -43,-185 2786.9,-2674 1117.3,448 1377.2,822 810.1,-829 -225.8,-75 846,-990 1175.9,-830 1464.7,1920 -261.6,303 -1114.4,-449 121.8,244 -205.5,501 870.3,400 -457.7,734 62.4,435 -551,-284 -654.9,227 -421,-37 219.7,656 -1028.5,-91 -1635,-476 z" />
    <path
       style="stroke:#000000;stroke-width:88.04482524;stroke-miterlimit:4;stroke-opacity:0.43137255000000002;stroke-dasharray:none"
       id="path63"
       d="m -157440.8,4235085 545.8,-314 1411.6,-133 310.4,-356 334,-85 -185.6,-895 155.9,-347 979.8,-736 4.8,-474 814,-92 565.2,-279 1529.2,-343 772.1,-426 2235.9,-674 184.1,134 1319.8,-62 744.6,-508 963.5,-1113 -227.6,-257 387.8,-207 180.7,-673 -1253.4,-983 -43.3,-286 -660.1,531 -3532,-1265 -197.3,-1010 -998.2,-1509 -3206.1,-591 -938.7,1179 4858,2557 -498.2,1555 -1100.1,871 186.8,710 -673,269 -1417.9,-84 -311.5,-280 -3402.4,3392 -1395.9,1741 -933.9,1438 658.6,387 1832.6,-782 z" />
    <path
       style="stroke:#000000;stroke-width:88.04482524;stroke-miterlimit:4;stroke-opacity:0.43137255000000002;stroke-dasharray:none"
       id="path65"
       d="m -141774.3,4234811 516.4,-31 281.6,-744 605,-138 274.3,-246 -361.3,-274 690.9,-470 -194.7,-1213 632.1,-167 -792.4,-501 -461.3,313 -4957.2,563 -30.4,387 592.9,164 -63.4,382 1491.4,759 305,690 1471.1,526 z" />
    <path
       style="stroke:#000000;stroke-width:88.04482524;stroke-miterlimit:4;stroke-opacity:0.43137255000000002;stroke-dasharray:none"
       id="path67"
       d="m -190381.5,4219420 406.1,500 293.7,1526 -344.6,920 703.4,265 -360.5,158 -448.4,705 -435,169 402.6,223 -852.1,1230 -261.3,991 249.4,1374 -88.9,2163 941.3,1020 1168.9,903 3921.7,2316 2350.3,31 2212.5,-694 1167,-3702 -356.2,-217 -116.4,-664 -603.4,-1043 -730,-500 -3361.7,-3666 -194.5,-677 -1046.8,-564 87.5,-274 -3407.8,-1561 -1296.8,-932 z" />
    <path
       style="stroke:#000000;stroke-width:88.04482524;stroke-miterlimit:4;stroke-opacity:0.43137255000000002;stroke-dasharray:none"
       id="path69"
       d="m -139330,4231528 251.8,-545 378.2,-24 410.7,-204 349.1,244 292.3,-282 502.7,-1010 458,-390 33.8,-173 -324.4,-218 310.1,-272 438.3,214 1366.4,-216 117.1,-132 -285.3,-482 -895.7,-539 -424.9,705 -574.6,69 -854.7,427 -711,-175 -181.9,-194 -308.1,40 -155.7,-422 141,-247 -461,-163 5.6,-243 -684.8,170 -148.1,324 -1304.5,-57 -323.1,424 -670.4,-398 -284.7,117 -260.8,-214 -1118,774 -509.1,-54 -963.5,1113 -744.6,508 1064.9,1300 -142,600 4957.2,-563 461.3,-313 792.4,501 z" />
    <path
       style="stroke:#000000;stroke-width:88.04482524;stroke-miterlimit:4;stroke-opacity:0.43137255000000002;stroke-dasharray:none"
       id="path71"
       d="m -107211,4224664 -2802,-952 -1237.1,1932 269.7,237 -1294.8,1085 -355.4,62 454.6,703 -362.5,596 688.4,-21 299.1,476 499.2,-40 217.7,227 1853.5,-2462 1769.6,-1843 z" />
    <path
       style="stroke:#000000;stroke-width:88.04482524;stroke-miterlimit:4;stroke-opacity:0.43137255000000002;stroke-dasharray:none"
       id="path73"
       d="m -155243.9,4223311 -547.3,2196 -172.8,2125 479.2,719 1285,558 311.5,280 1417.9,84 673,-269 -186.8,-710 1100.1,-871 498.2,-1555 -4858,-2557 z" />
    <path
       style="stroke:#000000;stroke-width:88.04482524;stroke-miterlimit:4;stroke-opacity:0.43137255000000002;stroke-dasharray:none"
       id="path75"
       d="m -135926.9,4227499 212.3,-486 362.2,107 297.8,-98 109.9,-222 -342.7,-241 72.7,-340 707.4,-586 -234.6,-222 -443,1 -186.9,-661 480.1,-89 -1190.6,-185 -740.8,-542 -1501.4,-643 -16.3,-155 321.5,-107 -163.2,-263 -953.7,348 -1379.6,-2 -735.2,-208 -1242.7,331 -1102.1,-151 -3001.2,875 -877.9,695 720.4,892 552.8,366 490.2,63 43.3,286 1253.4,983 -180.7,673 -387.8,207 227.6,257 509.1,54 1118,-774 260.8,214 284.7,-117 670.4,398 323.1,-424 1304.5,57 148.1,-324 684.8,-170 -5.6,243 461,163 -141,247 155.7,422 308.1,-40 181.9,194 711,175 854.7,-427 574.6,-69 424.9,-705 z" />
    <path
       style="stroke:#000000;stroke-width:88.04482524;stroke-miterlimit:4;stroke-opacity:0.43137255000000002;stroke-dasharray:none"
       id="path77"
       d="m -168565.1,4217302 -759.1,679 -438.8,-122 -757.2,87 -195.1,813 -236.3,144 240.9,155 -88,535 833.7,378 -288.6,246 418.7,127 -280,166 665.8,77 -13.9,508 373,114 -373.2,194 140.8,522 -155.2,148 298.8,132 -208.4,210 233.9,116 -88.6,255 270.8,561 -97.6,500 -263.6,108 86.6,346 479.2,-157 350.9,139 480.2,587 192.5,-437 623,321 1467.6,-725 -1.9,-215 629.2,-182 389.9,-366 227.3,-148 381,-978 139.4,-1028 -214.7,-594 639.6,-1067 634.4,-578 -3841.1,-1449 -768.4,525 -1127.5,-647 z" />
    <path
       style="stroke:#000000;stroke-width:88.04482524;stroke-miterlimit:4;stroke-opacity:0.43137255000000002;stroke-dasharray:none"
       id="path79"
       d="m -142369.6,4212658 -1190,-679 -465.4,-834 -286.1,-186 -789.2,-29 -648.8,-630 -184.4,-656 -317.1,-276 -1682.4,-143 -405.2,-545 -1350.9,-804 -350.1,-62 -237.9,153 -855.1,-222 559.7,1197 -717.3,700 74.4,282 -923.3,248 -551.5,374 -1635.6,452 -1400.5,1393 -899.9,417 2037.5,1266 1010.6,196 1426.6,995 1008.7,-71 353.1,577 -93.3,465 174.9,188 1676.6,154 503,267 1432.7,-783 988.5,-22 2097.3,-679 1005.5,-916 1436.5,-639 304.5,-390 -1106.1,-758 z" />
    <path
       style="stroke:#000000;stroke-width:88.04482524;stroke-miterlimit:4;stroke-opacity:0.43137255000000002;stroke-dasharray:none"
       id="path81"
       d="m -173766.5,4210700 397.3,-40 422.5,219 1066.8,-318 1428.2,-55 295.3,296 496.2,105 2668.2,-174 723,133 1848.7,783 1700.9,410 6093.2,749 899.9,-417 1400.5,-1393 1635.6,-452 551.5,-374 923.3,-248 -74.4,-282 717.3,-700 -559.7,-1197 855.1,222 237.9,-153 350.1,62 1350.9,804 405.2,545 1682.4,143 317.1,276 184.4,656 648.8,630 789.2,29 286.1,186 465.4,834 1190,679 880.1,-2907 639,-3358 -1981.7,-2615 -10.1,-1912 -307.6,-2007 747.3,-1084 623.9,-1660 216.4,-2300 241.3,-91 -1247.2,-647 -2434.8,-861 -732.6,58 -1272.3,-500 -1899.3,-179 -3125.3,-256 -4451.1,3539 -1996.6,1259 -1180.7,1269 -3041.2,2188 -319.5,545 -1510.3,958 -4347.1,4214 -4887.5,4389 z" />
    <path
       style="stroke:#000000;stroke-width:88.04482524;stroke-miterlimit:4;stroke-opacity:0.43137255000000002;stroke-dasharray:none"
       id="path83"
       d="m -173766.5,4210700 4887.5,-4389 4347.1,-4214 1510.3,-958 319.5,-545 3041.2,-2188 1180.7,-1269 1996.6,-1259 4451.1,-3539 -2991.8,-1851 -4334.6,-1461 -2991.6,-1372 -1017.8,-37 -516,163 -3922.4,-1473 -277,77 -3387.2,4369 -717.7,1985 -1750.1,1515 -4507.6,1222 -746.1,-101 -1148.9,-730 -657.7,382 -578.9,-683 -1121.4,-351 -1520.8,1894 1773,653 2066.1,452 1371.8,-52 2862.4,840 1274.3,-7 454.9,1734 685.2,65 605,476 -179.3,1557 -3009.3,1339 -5071.2,519 -2159.2,-74 -862.7,-2602 -371.1,1047 -346.7,310 -475.6,1641 681.1,4366 1250.5,-430 1367.5,784 3290.4,2373 1209.7,544 1414.2,325 1474,-251 1148.6,-796 z" />
    <path
       style="stroke:#000000;stroke-width:88.04482524;stroke-miterlimit:4;stroke-opacity:0.43137255000000002;stroke-dasharray:none"
       id="path85"
       d="m -94462.011,4210112 1092.46,-1056 -55.374,-470 2367.897,-1656 -541.997,-907 1786.323,-1134 -333.905,-698 166.935,-719 1100.876,-597 362.556,345 869.665,-641 -351.986,-77 -399.835,-372 -778.595,-1438 410.96,-785 52.395,-582 15.715,-174 -816.149,-980 -361.013,-135 -874.109,-889 -428.311,149 -940.741,274 -398.317,-418 -532.893,457 -397.721,773 -363.709,-1661 -752.16,205 -945.409,-586 -643.73,863 -347.502,375 1043.933,1159 167.854,525 949.718,940 -1043.438,578 -1446.577,1225 -2234.961,865 -2126.344,2939 1899.772,768 897.756,-99 1111.308,655 381.828,495 878.436,544 1231.697,45 362.5,865 -251.605,863 215.797,167 z" />
    <path
       style="stroke:#000000;stroke-width:88.04482524;stroke-miterlimit:4;stroke-opacity:0.43137255000000002;stroke-dasharray:none"
       id="path87"
       d="m -93369.551,4209056 1247.511,-888 2960.109,-586 1464.169,-1180 970.67,-395 1209.745,-87 957.227,332 544.105,-2669 -91.868,-534 797.911,-2748 307.37,-310 -685.176,194 -847.665,240 68.706,479 -1697.308,2324 -863.153,-70 -1.268,-551 -618.109,-28 -869.665,641 -362.556,-345 -1100.876,597 -166.935,719 333.905,698 -1786.323,1134 541.997,907 -2367.897,1656 55.374,470 z" />
    <path
       style="stroke:#000000;stroke-width:88.04482524;stroke-miterlimit:4;stroke-opacity:0.43137255000000002;stroke-dasharray:none"
       id="path89"
       d="m -118862.8,4198163 -522.7,1351 1914,1569 814.5,353 687.3,594 450.8,7 649.6,313 708.2,520 536.9,681 312.7,1350 490.9,506 869.2,386 784.4,705 1305.5,-1270 847.9,-1643 5042,831 1977.2,707 804.9,686 2126.344,-2939 2234.961,-865 1446.577,-1225 1043.438,-578 -949.718,-940 -167.854,-525 -1043.933,-1159 347.502,-375 -909.476,-390 -2001.704,-2739 -871.238,-844 -1514.499,-987 -617.8,224 -1975.6,148 -2037.8,-282 -1210.5,-3 -651.2,252 -1052.3,-69 -694.1,165 -970.4,-453 -738.3,-73 -1700.1,689 -2338.8,-368 -1200,60 -1389.8,4051 -837,1579 z" />
    <path
       style="stroke:#000000;stroke-width:88.04482524;stroke-miterlimit:4;stroke-opacity:0.43137255000000002;stroke-dasharray:none"
       id="path91"
       d="m -118862.8,4198163 837,-1579 -3699.5,-2137 1340.3,-2754 -636.7,99 -629.8,416 -1209.2,199 -608.5,863 -584.2,85 -324.9,-129 -286,-1443 38.9,-404 186.5,-52 -202.2,-1073 -575.1,-412 -212.6,-586 -458.9,147 -943.7,-588 -3230.3,-3226 -554.1,-197 171.5,-1169 -131.8,-343 177,-178 -130.2,-225 -1090.8,-678 -167,-288 -1431.3,-25 -444.8,-169 -537.6,321 -766.7,-462 -52.7,220 -900.5,319 -2803.7,2563 -4863.8,1671 -2067.9,437 -877.6,1707 -704.1,695 -1669.4,2807 1899.3,179 1272.3,500 732.6,-58 2434.8,861 1247.2,647 -241.3,91 -216.4,2300 -623.9,1660 -747.3,1084 307.6,2007 10.1,1912 1981.7,2615 823.4,-168 1354.8,-1298 -5.2,-276 1900,-552 1107.2,-1164 492.7,-883 -764.3,-601 1531,-421 1343.7,441 1242.9,908 1228.4,-1279 1800.6,-1248 -540.5,-1644 897.3,-603 438.1,-800 766.1,-443 507,-711 1505.8,486 148,817 1015.4,539 718,153 531.6,514 623.2,-56 535,786 1060.4,-569 180.7,109 489.8,-382 1056.6,115 z" />
    <path
       style="stroke:#000000;stroke-width:88.04482524;stroke-miterlimit:4;stroke-opacity:0.43137255000000002;stroke-dasharray:none"
       id="path93"
       d="m -184220.1,4195887 -433.7,995 -139.6,1423 352,694 -195.2,305 365.9,415 -138.4,1068 862.7,2602 2159.2,74 5071.2,-519 3009.3,-1339 179.3,-1557 -605,-476 -685.2,-65 -454.9,-1734 -1274.3,7 -2862.4,-840 -1371.8,52 -2066.1,-452 -1773,-653 z" />
    <path
       style="stroke:#000000;stroke-width:88.04482524;stroke-miterlimit:4;stroke-opacity:0.43137255000000002;stroke-dasharray:none"
       id="path95"
       d="m -83687.778,4200185 685.176,-194 -694.126,-291 -61.457,178 219.316,76 -148.909,231 z" />
    <path
       style="stroke:#000000;stroke-width:88.04482524;stroke-miterlimit:4;stroke-opacity:0.43137255000000002;stroke-dasharray:none"
       id="path97"
       d="m -83196.116,4198897 310.973,128 452.361,-422 107.513,-529 -403.675,-455 -15.902,-980 129.641,-552 -307.846,334 -205.854,1157 -482.096,786 382.114,284 32.771,249 z" />
    <path
       style="stroke:#000000;stroke-width:88.04482524;stroke-miterlimit:4;stroke-opacity:0.43137255000000002;stroke-dasharray:none"
       id="path99"
       d="m -96152.183,4197203 643.73,-863 945.409,586 752.16,-205 363.709,1661 397.721,-773 532.893,-457 398.317,418 940.741,-274 428.311,-149 -1058.51,-1034 -1411.955,-316 -550.233,-446 -430.618,-713 110.322,-367 -173.456,-372 -192.449,-29 -6.071,-512 -740.287,-618 -235.564,-429 -891.753,-100 -815.848,215 -2320.908,-257 -1982.578,74 1514.499,987 871.238,844 2001.704,2739 909.476,390 z" />
    <path
       style="stroke:#000000;stroke-width:88.04482524;stroke-miterlimit:4;stroke-opacity:0.43137255000000002;stroke-dasharray:none"
       id="path101"
       d="m -116636,4192533 -428.7,-44 -1259.1,-656 -2061.2,-140 -1340.3,2754 3699.5,2137 1389.8,-4051 z" />
    <path
       style="stroke:#000000;stroke-width:88.04482524;stroke-miterlimit:4;stroke-opacity:0.43137255000000002;stroke-dasharray:none"
       id="path103"
       d="m -88687.312,4189743 -266.1,263 -272.346,42 194.381,222 366.621,36 306.068,-266 -328.624,-297 z" />
    <path
       style="stroke:#000000;stroke-width:88.04482524;stroke-miterlimit:4;stroke-opacity:0.43137255000000002;stroke-dasharray:none"
       id="path105"
       d="m -85383.813,4188829 -512.013,242 -211.783,376 18.8,336 460.976,452 687.237,-706 65.569,-292 15.151,-250 -523.937,-158 z" />
    <path
       style="stroke:#000000;stroke-width:88.04482524;stroke-miterlimit:4;stroke-opacity:0.43137255000000002;stroke-dasharray:none"
       id="path107"
       d="m -96650.627,4176143 -154.489,2131 -674.432,-126 -219.445,340 -179.619,-120 -790.825,564 -141.838,639 -1066.135,1125 -9.069,482 -268.521,301 -2272.8,-628 -302,411 -57.2,1117 -259.3,319 704.1,370 563.8,75 718.2,592 688.7,124 749.307,-494 1779.091,-284 463.557,-1062 612.106,7 360.533,-208 -62.474,-338 458.709,-73 129.884,-216 1091.351,-580 88.736,-855 628.479,-120 811.174,-641 -124.702,-1829 -474.488,219 -657.852,12 -272.906,-300 167.199,-442 -1048.431,-182 -322.224,174 -656.176,-504 z" />
    <path
       style="stroke:#000000;stroke-width:88.04482524;stroke-miterlimit:4;stroke-opacity:0.43137255000000002;stroke-dasharray:none"
       id="path109"
       d="m -212248.9,4171937 -585.6,736 982.1,227 596.3,516 -222.6,261 220.9,50 -6.4,332 255.9,203 1057.9,-10 242.5,567 501.6,304 -139.2,201 179.5,726 746.9,286 468,488 431.5,153 567.3,56 1027.6,-292 911.2,-1 831.3,-525 1254.5,937 1100.8,440 1469.7,1068 129.1,511 952.1,331 966.4,-340 2551.7,-394 1064.5,265 527.2,-21 552,262 1682.3,-203 1196,431 2.8,-345 550,-885 733.5,-533 491.7,-750 -1294,-298 -315.9,-2051 -1405.2,-274 -524,120 -902.5,-92 -1221.9,-315 -91,-2747 -916.6,405 -638.1,-481 -567.7,50 -551.6,-427 -425.3,-783 -206.1,82 -153.2,-217 -1066,-287 -334.9,-339 67,-289 -1455.7,-1155 -26.9,-901 -988.4,-494 -173.1,-454 -320.6,-86 -720.4,-726 67.5,-269 -687.8,-905 -1475.3,-734 -1133.8,2040 -668.7,830 -684.8,347 -4476,5398 z" />
    <path
       style="stroke:#000000;stroke-width:88.04482524;stroke-miterlimit:4;stroke-opacity:0.43137255000000002;stroke-dasharray:none"
       id="path111"
       d="m -189340,4158911 1989,1054 -255.4,265 173.9,250 -990.6,1408 227.5,293 -389.2,526 837.3,1035 -414.2,172 425.3,673 -224.4,324 88.7,184 771.6,282 30.8,462 269.5,174 -160.9,214 596.7,546 -44.2,273 393.7,511 487.3,116 2101.3,1215 552.6,794 -397.7,404 329.6,630 681.1,244 829.5,593 1332.4,-327 44.3,-667 422.5,203 871,33 52.9,750 2413.2,1235 319.5,329 -133.5,197 1211.1,635 810.3,4 451.3,371 1145,263 566.2,449 866.1,-45 1889.3,-1115 -327.5,-1363 692.3,-2015 -513.8,-31 -330.2,-550 346.2,-1064 877.6,-514 417,-720 487.8,-376 1947.9,-592 2130.5,-1736 379.3,-140 -502,-638 -190.1,-141 149.5,-188 -323,-372 -144.3,-738 -404.9,-201 155.1,-285 -209.8,-120 -246.8,-1525 32.5,-195 761,-70 -52.8,-498 -422.5,-148 -710.4,-600 -554.2,-76 -624.8,157 -395.4,954 -1969.6,-2 -125,-224 -470.5,-104 -636.7,-764 -483.7,-11 -162.2,-200 -572.5,-120 -636.9,-921 -304.4,168 -939.3,2 -222.7,-151 -16,-182 -134.1,-245 384.2,-73 -77.1,-153 -813.1,-235 147.8,305 -700,303 -605.5,-148 -237.1,-254 184.5,-286 -193,-98 -532.5,-72 85.3,195 -227.4,128 -507.4,-78 -1179.9,-785 -460.3,-111 -677.3,-846 -150.2,-248 -552.5,-143 -266.8,98 -368,-418 -341.5,-4 -299.5,-388 -132.5,-298 -4061.6,2950 -4339.6,2241 z" />
    <path
       style="stroke:#000000;stroke-width:88.04482524;stroke-miterlimit:4;stroke-opacity:0.43137255000000002;stroke-dasharray:none"
       id="path113"
       d="m -140810.5,4173735 -269.8,140 437.2,296 73.9,-393 -241.3,-43 z" />
    <path
       style="stroke:#000000;stroke-width:88.04482524;stroke-miterlimit:4;stroke-opacity:0.43137255000000002;stroke-dasharray:none"
       id="path115"
       d="m -171816.8,4157389 14.3,348 365.9,-166 -380.2,-182 z" />
  </g>
  <path
     d="m -480878.12,4076519.1 1732.56,-4.9 2.29,7.3 10.66,17.1 18.06,11.3 -8.18,17.4 -0.71,17 2.02,6.1 -5.48,11.1 4.99,37.6 6.99,9.2 -3.22,11 -5.55,6.4 -1.16,24.9 5.35,10.4 0.1,4.2 -23.32,11.2 -12.65,1.9 17.18,54.7 7.09,7.2 1.72,8.4 11.32,18.5 -1.02,5.2 2.18,5.1 12.05,14.3 -18.49,26.5 -33.18,29.7 -32.19,2.7 -19.41,-4.6 -1.95,2.4 -4.49,-1 -12.42,2.3 -8.5,-1.4 -12.5,-7.7 -78.42,-69.3 -4.59,-39.9 -70.75,-23.8 -23.57,9.6 -27,4.9 -14.41,5.5 -3.52,3.6 -3.96,-0.5 -18.05,15.7 -5.23,10.2 -18.06,21.6 -28.31,14.1 -17.67,15.3 -0.86,3.5 -15.34,7.2 -26.32,-38.6 -18.6,6.3 -20.75,12.4 -22.17,20.9 -28.19,39.5 5.19,18.6 -5.92,34.6 -4.36,44 -15.76,8.7 -22.94,18.2 -4.93,16.6 -7.38,28.1 9.14,23.6 10.49,50.2 0.24,20.3 2.45,15.5 0.55,50.1 3.26,17.6 -3.95,46.8 -42.75,27.1 -4.28,5.5 -15.81,11.3 -2.61,0 -5,4.6 -6.97,14.4 -15.02,12.4 -30.41,18.5 0.14,-2 -12.66,-4 -11.33,1.2 -3.47,2.9 -16.17,4.5 -6.14,-2.3 -1.42,1.9 -38.18,-3.8 0.5,-5.6 -3.51,-8.3 -12.43,-6.3 -3.08,-5.3 -1.34,-8.3 -5.16,-2.5 0.22,-13.3 1.88,-1.4 6.41,0.9 3.71,-4 -4.09,-3.1 3.68,-11.7 -6.22,-8.1 -5.21,-4 -5.68,-1 -3.22,-7.7 -2.41,-0.3 -5.45,4.8 -5.08,-0.3 -2.17,12.3 -4.69,-1.4 0.98,-4.8 -1.48,-2 -4.19,-0.1 -7.76,-5.2 -5.15,1.4 -0.3,-5.5 -10.13,-8.5 -8.77,2.2 -1.57,8.3 -2.19,0.9 -6.44,-5.5 -8.31,-3.2 -3.53,1.3 0.23,19.7 -8.52,-1.1 -1.15,-3.8 -2.48,-0.6 -3.86,3.8 -11.24,-6.1 -1.33,7.7 14.01,12.6 -8.93,3.8 -20.65,3.1 -12.04,21.7 -5.97,3.5 -16.88,-0.8 -12.95,6 -16.03,18.3 -27.12,20.9 -15.85,7.2 -45.73,12.5 -15.51,2 -16.96,8.2 -8.73,0.8 -15.59,-3.3 -23.11,-23.6 -6.36,-0.5 -3.63,2 -20.96,-9.3 -16.36,11.8 -13.78,21.3 -8.56,25.4 -32.96,38.8 -28.17,9.4 -33.07,7.5 -6.86,3.5 -13.16,14 -21.61,10.4 -7.6,7.5 -2.55,11.6 -7.55,15.1 0.6,8.3 -12.33,24.9 -4.81,3.6 -8.86,13.6 -6,13.2 1.56,5.9 -0.88,9.6 -12.45,22.1 -35.1,36.9 -22.38,13.3 -18.07,18.3 -0.19,7.5 -9.1,18.5 -6.77,25 3.07,5.7 -18.03,5.1 -16.78,-1.2 -21.89,-10.9 -11.6,-3 -9.1,1.1 -13.13,-2.2 -9.63,-13.9 -4.41,-0.1 -16.94,-8.2 -12.44,-1.7 -10.38,-8.8 -7.07,4.8 -2.55,-0.1 -1.18,-3 -15.73,-9.7 -9.32,-9.2 -19.18,-2.1 0.18,-54.2 1.43,-0.4 5.09,-12.5 -0.92,-4 4.63,-5 -0.67,-5.5 15.88,-7.5 13.84,-24.1 4.66,-2.9 1.66,-4.1 6.92,-3.5 6.26,-14.4 0,-10.1 4.61,-0.1 7.01,-4.9 2.28,-4.8 7.14,-3.8 3.52,-4.3 -1.37,-8 2.22,-19.8 -1.72,-4.4 -6.56,-4.1 -0.79,-11.2 3.56,-2.8 10.79,-17.6 -2.05,-4.4 0.47,-9.3 -1.38,-3.3 -3.25,-0.1 4.21,-5.4 -1.54,-7.1 4.57,-7.5 -0.44,-2.8 4.15,0.3 -0.16,-17.6 -2.75,-2.3 -1.87,-16.4 -5.86,-3.7 -39.2,-10.4 -4.04,-7.7 1.07,-22.5 -0.66,-6.1 4.11,-6.2 1.05,-6.5 -1.27,-6.5 2.26,-22.6 -7.3,-6.6 -5.67,-13.7 0.98,-3.1 -2.6,-8.4 11.94,-31.4 -2,-6.9 -9.37,-1.2 -22.47,-1.9 -4.06,-0.2 -5.63,-5.9 3.58,-732.4 z"
     id="path122"
     style="fill:#f9e3b3;fill-opacity:1;stroke:#000000;stroke-width:3.99999983;stroke-linecap:round;stroke-miterlimit:4;stroke-opacity:1;stroke-dasharray:none"
     sodipodi:nodetypes="ccccccccccccccccccccccccccccccccccccccccccccccccccccccccccccccccccccccccccccccccccccccccccccccccccccccccccccccccccccccccccccccccccccccccccccccccccccccccccccccccccccccccccccccccccccccccccccccccccccccccccccccccccccccccccccccccccccccccccccccccccccc" />
  <path
     d="m -480881.7,4077251.5 5.63,5.9 4.06,0.2 22.47,1.9 9.37,1.2 2,6.9 -11.94,31.4 2.6,8.4 -0.98,3.1 5.67,13.7 7.3,6.6 -2.26,22.6 1.27,6.5 -1.05,6.5 -4.11,6.2 0.66,6.1 -1.07,22.5 4.04,7.7 39.2,10.4 5.86,3.7 1.87,16.4 2.75,2.3 0.16,17.6 -4.15,-0.3 0.44,2.8 -4.57,7.5 1.54,7.1 -4.21,5.4 3.25,0.1 1.38,3.3 -0.47,9.3 2.05,4.4 -10.79,17.6 -3.56,2.8 0.79,11.2 6.56,4.1 1.72,4.4 -2.22,19.8 1.37,8 -3.52,4.3 -7.14,3.8 -2.28,4.8 -7.01,4.9 -4.61,0.1 0,10.1 -6.26,14.4 -6.92,3.5 -1.66,4.1 -4.66,2.9 -13.84,24.1 -15.88,7.5 0.67,5.5 -4.63,5 0.92,4 -5.09,12.5 -1.34,0.4 0.62,-427.2 z"
     id="path130"
     style="fill:#f9e3b3;fill-opacity:1;stroke:#000000;stroke-width:2;stroke-linecap:round;stroke-miterlimit:4;stroke-opacity:1;stroke-dasharray:none"
     sodipodi:nodetypes="ccccccccccccccccccccccccccccccccccccccccccccccccccccccccc" />
  <path
     d="m -480683.23,4077796 20.53,17.3 15.23,7.3 12.02,9.7 0.88,17.2 23.05,43.4 2.91,0.9 8.21,9.3 8.84,4.4 5.98,14.9 17.17,15.9 9.24,3.4 2.05,3.6 5.92,-0.4 0.73,2.2 15.53,8.4 -47.72,27.9 -6.66,10.3 -9.51,13 -14.57,-4.9 -11.03,-1.1 -7.12,12.7 -1.47,23.8 2.69,26.2 3.27,5.7 1.66,8.8 -4.62,4.9 -8.83,25.7 0.86,9.5 7.95,16.4 -7.34,3.6 5.32,1.7 4.7,-1.5 16.2,18.4 -11.68,36.6 -1.85,-1 -6.62,5.6 0.5,3 -3.24,3 0.33,3.6 -11.75,26.3 -0.62,3.9 3.37,2 -3.24,3.5 1.51,9.4 -7.4,-1.7 -11.14,25.2 -2.72,31.5 2.58,9.4 2.58,8.1 1.79,0.3 -0.49,16.6 3.77,4.5 1.2,5.1 7.31,8.2 -7.7,19.5 -25.93,-1.5 -2.78,-0.8 -4.07,-7.8 -13.26,6.5 -2.39,4.9 -4.65,-0.3 -11.19,-11.1 -19.25,-4.7 2.74,20.8 9.38,8.4 4.8,-0.1 8.95,29.7 -2.12,15.2 -5.27,2.5 -0.4,2.1 7.44,7.2 0.83,14.1 -7.57,8.2 20.56,14.9 -5.22,13.7 1.87,2.2 -1.85,1.9 2.12,17.7 -4.57,3.3 -20.49,-4.1 -14.67,7.6 -3.12,6.1 -6.34,-3.2 -4.71,-12.8 -4.98,-0.7 -3.45,4.9 1.48,3.3 -2.83,4.8 -14.18,6.3 -4.19,-0.3 -1.83,3.3 -6.42,-2.4 -5.21,2 -12.77,0.5 -4.25,2.7 0.87,7.7 -2.87,5 4.92,11.3 -18.35,10.6 -32.09,0 -12.25,5.7 -0.3,2.3 -7.66,8.2 -0.4,-860.1 19.18,2.1 9.32,9.2 15.73,9.7 1.18,3 2.55,0.1 7.07,-4.8 10.38,8.8 12.44,1.7 16.94,8.2 4.41,0.1 9.63,13.9 13.13,2.2 9.1,-1.1 11.6,3 21.89,10.9 16.78,1.2 18.03,-5.1 z"
     id="path132"
     style="fill:#f9e3b3;fill-opacity:1;stroke:#000000;stroke-width:1.99999991;stroke-linecap:round;stroke-miterlimit:4;stroke-opacity:0.43137255000000002;stroke-dasharray:none"
     sodipodi:nodetypes="cccccccccccccccccccccccccccccccccccccccccccccccccccccccccccccccccccccccccccccccccccccccccccccccccccccccccccccccccccccccccc" />
  <path
     d="m -479895.58,4078732.7 -0.77,2.2 -3.49,0.2 -3.35,-2.4 -9.09,6.3 -6.24,20.4 -2.99,3 -1.49,0.7 -3.23,-4.7 -4.99,-1 -5.06,0.3 -0.97,1.9 -3.08,-1 -4.57,3.6 -18.23,27.9 -18.77,45.2 -14.73,12 -1.91,5.5 -8.94,9.4 0.46,1.5 -8.79,5.8 -7.2,8.1 -3.75,9 -11.85,8.6 -5.26,11.2 -7.27,9.2 2.33,0.4 -4.89,3 -0.64,7.8 -11.18,9.5 -8.78,2 -5.3,4.2 -7.18,11.5 -15.55,51.5 1.86,1.7 -1.19,4.6 0.64,-4.6 -2.04,-1.2 -2.54,1.3 -0.99,5.1 -776.26,-3.5 0.47,-415.7 0.75,-0.8 7.1,-7.6 0.3,-2.3 12.25,-5.7 32.09,0 18.35,-10.6 -4.92,-11.3 2.87,-5 -0.87,-7.7 4.25,-2.7 12.77,-0.5 5.21,-2 6.42,2.4 1.83,-3.3 4.19,0.3 14.18,-6.3 2.83,-4.8 -1.48,-3.3 3.45,-4.9 4.98,0.7 4.71,12.8 6.34,3.2 3.12,-6.1 14.67,-7.6 20.49,4.1 4.57,-3.3 -2.12,-17.7 1.85,-1.9 -1.87,-2.2 5.22,-13.7 -20.56,-14.9 7.57,-8.2 -0.83,-14.1 -7.44,-7.2 0.4,-2.1 5.27,-2.5 2.12,-15.2 -8.95,-29.7 -4.8,0.1 -9.38,-8.4 -2.74,-20.8 19.25,4.7 11.19,11.1 4.65,0.3 2.39,-4.9 13.26,-6.5 4.07,7.8 2.78,0.8 25.93,1.5 7.7,-19.5 -7.31,-8.2 -1.2,-5.1 -3.77,-4.5 0.49,-16.6 -1.79,-0.3 -2.58,-8.1 -2.58,-9.4 2.72,-31.5 11.14,-25.2 7.4,1.7 -1.51,-9.4 3.24,-3.5 -3.37,-2 0.62,-3.9 11.75,-26.3 -0.33,-3.6 3.24,-3 -0.5,-3 6.62,-5.6 1.85,1 11.68,-36.6 -16.2,-18.4 -4.7,1.5 -5.32,-1.7 7.34,-3.6 -7.95,-16.4 -0.86,-9.5 8.83,-25.7 4.62,-4.9 -1.66,-8.8 -3.27,-5.7 -2.69,-26.2 1.47,-23.8 7.12,-12.7 11.03,1.1 14.57,4.9 9.51,-13 6.66,-10.3 47.72,-27.9 25.16,18.6 0.29,2.9 14.03,18.6 8.34,-5.6 8.54,1.9 6.69,-6.4 -1.08,-2.3 18.3,-0.5 5.68,-3.3 7.55,-0.7 5.67,9 8.34,4.8 4.45,6.7 -1.7,6.8 5.06,0.2 5.64,5.3 13.92,4 1.38,3.6 7.95,-8.6 3.92,-7.9 3.8,-1 9.05,1.5 2.96,4.9 4.43,-1.1 6.2,1.9 5.02,4.8 -0.68,2.3 3.98,1.3 3.5,-2.4 15.31,9.3 4.09,0.5 19.08,-17.4 1.42,5.3 4.83,1.1 4.62,-6.2 7.45,9.7 5.84,-0.2 9.07,7.8 -3.19,11.7 -12.15,9.9 -7.66,17.4 -4.69,26.2 3.36,6 -5.79,20.3 -7.89,43.1 4.6,12.7 2.38,26.4 7.41,28.4 -4.51,7.3 -4.61,0.6 -3.96,4 -0.54,12 -4.94,15.2 2.42,3 -1.21,9.1 1.92,8.2 -2.38,19.2 4.73,6.2 6.25,19.5 6.85,7.6 3.37,10.1 5.87,-2.7 6.34,12.2 0.45,12 3.13,4.1 1.88,9.7 7.48,6.7 5.43,13 10.45,5.9 1.89,5.1 -1.83,8.6 1.82,4.6 41.61,62.5 5.83,9.5 44.59,69.9 6.82,4.5 6.66,10.8 11.29,26.4 3.58,8.5 40.2,30.7 -3.11,-26 17.11,-1 18.22,7.6 47.34,6.2 35.49,31.1 43.22,29 39.73,37 z"
     id="path134"
     style="fill:#f9e3b3;fill-opacity:1;stroke:#000000;stroke-width:1.99999991;stroke-linecap:round;stroke-miterlimit:4;stroke-opacity:1;stroke-dasharray:none"
     sodipodi:nodetypes="cccccccccccccccccccccccccccccccccccccccccccccccccccccccccccccccccccccccccccccccccccccccccccccccccccccccccccccccccccccccccccccccccccccccccccccccccccccccccccccccccccccccccccccccccccccccccccccccccccccccccccccccccccccccccc" />
  <path
     d="m -478927.71,4078147.3 -1.39,0.7 1.29,-1 0.1,0.3 z"
     id="path136"
     style="fill:#fbe9bd;fill-opacity:1;stroke:#000000;stroke-width:2;stroke-linecap:round;stroke-miterlimit:4;stroke-opacity:1;stroke-dasharray:none" />
  <path
     d="m -478914.75,4078200.2 -0.15,-0.1 -0.43,-3.6 0.58,3.7 z"
     id="path138"
     style="fill:#fbe9bd;fill-opacity:1;stroke:#000000;stroke-width:2;stroke-linecap:round;stroke-miterlimit:4;stroke-opacity:1;stroke-dasharray:none" />
  <path
     d="m -478973.37,4078270.8 -5.26,-6.8 -2.71,-0.5 1.94,-2.9 3.65,-0.5 3.05,3.5 -2.54,3.2 1.87,4 z"
     id="path140"
     style="fill:#fbe9bd;fill-opacity:1;stroke:#000000;stroke-width:2;stroke-linecap:round;stroke-miterlimit:4;stroke-opacity:1;stroke-dasharray:none" />
  <path
     d="m -478943.07,4078279.3 -5.1,-3.2 -2.11,-4.9 0.19,-4.3 4.59,-5.9 6.85,9.2 0.65,3.8 0.15,3.2 -5.22,2.1 z"
     id="path142"
     style="fill:#fbe9bd;fill-opacity:1;stroke:#000000;stroke-width:2;stroke-linecap:round;stroke-miterlimit:4;stroke-opacity:1;stroke-dasharray:none" />
  <path
     d="m -478667.54,4076669.4 -5.44,-2.7 -5.75,0.2 -4.95,0.2 -14.34,6.7 -13.21,2.2 -8.2,3.5 -13.98,1.2 -16.59,8.3 1.61,5.2 -2.81,1.7 7.05,8.7 -0.38,9.3 6.66,13.6 9.26,5.9 11.35,12.7 6.35,2.3 3.35,-2.1 0.47,-3.2 16.21,-6.1 -0.1,-2.9 11.46,-5 6.28,4.9 0.73,5.3 4.78,5 14.83,2.1 0.4,17.6 -5.65,-0.6 -4.04,5.3 -8.24,2.4 -1.37,3.6 -11.51,3.6 -18.03,23 -36.45,12.3 -10.66,12.5 -16.76,7.8 -8.89,7.2 -1.21,4 -11.79,0.2 -1.08,-4.8 -9.34,-11.3 -4.94,-9.6 2.84,-3 -3.92,-17.1 0.13,-13.6 -10.8,-4 -19.78,-1.5 -5.48,3.8 -2.03,-0.5 -12.11,-17.2 -20.37,10.7 -1.18,-6.7 -9.89,-17.4 -5.56,-4.5 -12.26,2.9 -3.03,-2.7 4.46,-3.9 -3.25,-4.6 -2.47,4 -8.44,-3.7 -1.07,0.9 2.65,4.3 -9.65,0.4 -10.38,9.1 -4.75,-2.9 -5.24,0.6 -10.08,5.7 -4.59,-2.4 -4.27,2.6 -5.61,10.6 -9.3,2.9 -6.18,2.7 -2.05,-3.3 -9.88,-0.5 -7.42,2.4 -6.76,5.4 -4.87,0.1 -3.25,-5.8 2.29,-6 -27.32,-41.4 -1.68,-2.1 -23.07,-1.7 -5.26,4 -18.76,3.2 -9.95,-3.7 -4.8,-9.5 2.93,-7.5 -15.53,-3.5 -0.1,-4.2 -5.35,-10.4 1.16,-24.9 5.55,-6.4 3.22,-11 -6.99,-9.2 -4.99,-37.6 5.48,-11.1 -2.02,-6.1 0.71,-17 8.18,-17.4 -18.06,-11.3 -10.66,-17.1 -2.3,-7.4 479.57,5.6 -1.54,149.7 z"
     id="path144"
     style="fill:#f9e3b3;fill-opacity:1;stroke:#000000;stroke-width:1.99999991;stroke-linecap:round;stroke-miterlimit:4;stroke-opacity:0.43137255000000002;stroke-dasharray:none"
     sodipodi:nodetypes="cccccccccccccccccccccccccccccccccccccccccccccccccccccccccccccccccccccccccccccccccccccccccccccccccccccccc" />
  <path
     d="m -478666.42,4077403.6 0.3,34.2 -0.75,117.3 -1.66,1.1 -17.03,5.7 -2,4.1 0.23,-4.6 -13.58,-0.9 -6.16,1 -4.84,5.2 4.32,-7.4 -3.92,-1.1 -34.91,3.1 -5.99,3.3 -17.75,17.8 -13.93,28.7 -7.59,13.3 -6.27,24.2 -8.76,57.9 -4.8,52.3 -1.11,24.1 1.95,8.1 -3.02,8.1 0.69,21.9 5.56,6.5 -0.32,4.4 -5.75,4.6 -2.48,5.8 1.55,1.4 -2.69,1.9 1.57,1.1 -0.55,7.8 -2.38,1.3 1.54,2 -4.46,-0.9 -4.71,4.7 -2.14,6.2 -4.81,-0.9 -8.28,4.5 -2.66,7.1 -7.71,6.1 7.23,-6.4 1.54,-5.1 -2.5,-4.2 -1.76,1.9 -0.35,-1.7 -4.68,-0.8 -7.05,5.5 6.03,7.4 -6.25,-6.4 -2.25,1.6 -7.9,19.3 -1.75,22.6 -7.49,0.1 -7.43,8.4 -4.51,20.4 3.24,13 -3,2.1 -6.15,-4.9 -5.33,2.3 -4.12,4.9 -4.97,-0.1 -6.34,13.7 -1.19,-1.3 -3.21,3.2 -1.51,12.3 -3.95,31.7 -5.66,1.4 -1.83,28.1 -9.54,4.3 -12.05,-1.1 -9.67,-5.1 -14.58,-15.3 -29.49,-7.6 -12.42,-11.5 -10.88,-13.7 -6.55,-5 -47.55,-54.5 -23.41,-30.8 -14.24,-35.1 -27.54,-43.4 -7.7,-19.7 -17.63,-23.8 -18.46,-31.9 -8.84,-5.1 -4.21,-6.6 -13.1,-22.5 -8.95,-31.5 -0.3,-27 -6.7,-31 30.84,-42.4 4.35,-7.6 6.03,-16.5 11.8,-23 13.83,-59.3 9.36,-21.7 0.44,-23.5 -4.81,-26.7 -13.88,-23.5 -5.29,-19.4 -43.23,-26.1 -33.56,-10.5 -28.81,-0.8 -4.07,-30.5 1.5,-44 -1.76,-7.6 3.72,-36.8 9.89,-3.7 -19.99,-9.5 13.67,-5.1 15.13,-12.2 29.16,-27.9 30.85,-39.4 -13.64,-36.6 11.01,-21 7.86,-31.5 8.47,-20 -11.81,-47.3 -4.3,-42.3 -8.88,-7.1 -2.21,-22.5 12.42,-2.3 4.49,1 1.95,-2.4 19.41,4.6 32.19,-2.7 33.18,-29.7 18.49,-26.5 -12.05,-14.3 -2.18,-5.1 1.02,-5.2 -11.32,-18.5 -1.72,-8.4 -7.09,-7.2 -17.18,-54.7 12.65,-1.9 23.32,-11.2 15.53,3.5 -2.93,7.5 4.8,9.5 9.95,3.7 18.76,-3.2 5.26,-4 23.07,1.7 1.68,2.1 27.32,41.4 -2.29,6 3.25,5.8 4.87,-0.1 6.76,-5.4 7.42,-2.4 9.88,0.5 2.05,3.3 6.18,-2.7 9.3,-2.9 5.61,-10.6 4.27,-2.6 4.59,2.4 10.08,-5.7 5.24,-0.6 4.75,2.9 10.38,-9.1 9.65,-0.4 -2.65,-4.3 1.07,-0.9 8.44,3.7 2.47,-4 3.25,4.6 -4.46,3.9 3.03,2.7 12.26,-2.9 5.56,4.5 9.89,17.4 1.18,6.7 20.37,-10.7 12.11,17.2 2.03,0.5 5.48,-3.8 19.78,1.5 10.8,4 -0.13,13.6 3.92,17.1 -2.84,3 4.94,9.6 9.34,11.3 1.08,4.8 11.79,-0.2 1.21,-4 8.89,-7.2 16.76,-7.8 10.66,-12.5 36.45,-12.3 18.03,-23 11.51,-3.6 1.37,-3.6 3.09,-0.9 -0.39,-25.9 -4.78,-5 -0.73,-5.3 -6.28,-4.9 -11.46,5 0.1,2.9 -16.21,6.1 -0.47,3.2 -3.35,2.1 -6.35,-2.3 -11.35,-12.7 -9.26,-5.9 -6.66,-13.6 0.38,-9.3 -7.05,-8.7 2.81,-1.7 -1.61,-5.2 16.59,-8.3 13.98,-1.2 8.2,-3.5 13.21,-2.2 14.34,-6.7 4.95,-0.2 5.75,-0.2 6.35,3.2 0.21,733.7 z"
     id="path148"
     style="fill:#f9e3b3;fill-opacity:1;stroke:#000000;stroke-width:1.99999991;stroke-linecap:round;stroke-miterlimit:4;stroke-opacity:0.43137255000000002;stroke-dasharray:none"
     sodipodi:nodetypes="cccccccccccccccccccccccccccccccccccccccccccccccccccccccccccccccccccccccccccccccccccccccccccccccccccccccccccccccccccccccccccccccccccccccccccccccccccccccccccccccccccccccccccccccccccccccccccccccccccccccccccccccccccccccccccccc" />
  <rect
     style="opacity:0.69999999999999996;fill:none;stroke:none;stroke-width:10;stroke-linecap:butt;stroke-linejoin:round;stroke-miterlimit:4;stroke-opacity:1;stroke-dasharray:none;stroke-dashoffset:0"
     id="rect3734"
     width="2056.3296"
     height="2258.4824"
     x="-480798.66"
     y="4076608.8" />
  <path
     style="fill:none;fill-opacity:1;stroke:#000000;stroke-width:2;stroke-linecap:round;stroke-miterlimit:4;stroke-opacity:1;stroke-dasharray:none"
     d="m 1658.0625,-89.6875 2.2813,7.375 10.6562,17.125 18.0625,11.28125 -8.1875,17.40625 -0.6875,17 2,6.09375 -5.4687,11.09375 5,37.625 6.9687,9.1875 -3.2187,11 -5.5313,6.40625 -1.1563,24.90625 5.3438,10.375 0.094,4.21875 -23.2813,11.1875 -12.6563,1.90625 17.1876,54.6875 7.0937,7.21875 1.7187,8.40625 11.3126,18.5 -1.0313,5.1875 2.1875,5.09375 12.0625,14.3125 -18.5,26.5 -33.1875,29.6875 -32.1875,2.71875 -19.4063,-4.625 -1.9374,2.40625 -4.5,-1 -12.4376,2.3125 2.2188,22.5 8.875,7.09375 4.3125,42.3125 11.8125,47.28125 -8.4688,20 -7.875,31.5 -11,21 13.625,36.59375 -30.8437,39.40625 -29.1563,27.90625 -15.125,12.1875 -13.6562,5.125 19.9688,9.5 -9.875,3.6875 -3.7188,36.8125 1.75,7.59375 -1.5,44 4.0625,30.5 28.8125,0.78125 33.5625,10.5 43.2187,26.125 5.3126,19.375 13.875,23.5 4.8124,26.71875 -0.4374,23.5 -9.375,21.6875 -13.8126,59.3125 -11.8124,23 -6.0313,16.5 -4.3437,7.59375 -30.8438,42.4062 6.6875,31 0.3125,27 8.9375,31.5 13.125,22.5 4.1875,6.5938 8.8438,5.0938 18.4687,31.9062 17.625,23.8125 7.6875,19.6875 27.5625,43.4062 14.2187,35.0938 23.4376,30.8125 47.5312,54.5 6.5625,5 10.875,13.6875 12.4063,11.5 29.5,7.5938 14.5937,15.3124 9.6563,5.0938 12.0624,1.0938 9.5313,-4.2813 1.8125,-28.125 5.6875,-1.375 3.9375,-31.7187 1.5,-12.2813 3.2188,-3.2187 1.1874,1.3124 6.3438,-13.7187 4.9688,0.125 4.125,-4.9063 5.3124,-2.3124 6.1563,4.9062 3,-2.0938 -3.2187,-13 4.5,-20.4062 7.4374,-8.4062 7.4688,-0.094 1.75,-22.5938 7.9062,-19.3124 2.25,-1.5938 6.25,6.4062 -6.0312,-7.4062 7.0625,-5.5 4.6875,0.8125 0.3438,1.6875 1.75,-1.9062 2.5,4.2187 -1.5313,5.0937 -7.25,6.4063 7.7187,-6.125 2.6563,-7.0937 8.2813,-4.5 4.8124,0.9062 2.1563,-6.1875 4.6875,-4.7187 4.4688,0.9062 -1.5313,-2 2.375,-1.3125 0.5625,-7.7813 -1.5938,-1.0937 2.6876,-1.9063 -1.5313,-1.4062 2.4687,-5.8125 5.75,-4.5937 0.3126,-4.4063 -5.5626,-6.5 -0.6874,-21.875 3.0312,-8.125 -1.9375,-8.0937 1.0937,-24.0938 4.8126,-52.3125 8.75,-57.875 6.2812,-24.2187 7.5938,-13.2813 13.9062,-28.71875 17.75,-17.78125 6,-3.3125 34.9062,-3.09375 3.9376,1.09375 -4.3438,7.40625 4.8438,-5.21875 6.1562,-1 13.5938,0.90625 -0.2188,4.59375 2,-4.09375 17,-5.6875 1.6875,-1.09375 0.75,-117.3125 -0.3125,-34.1875 0.031,0 0.3438,-883.90625 -479.5625,-5.59375 z m 217.8125,1632.875 -1.3125,1 1.4063,-0.6875 -0.094,-0.3125 z"
     transform="translate(-480803.67,4076603.8)"
     id="path4973"
     sodipodi:nodetypes="cccccccccccccccccccccccccccccccccccccccccccccccccccccccccccccccccccccccccccccccccccccccccccccccccccccccccccccccccccccccccccccccccccccccccccccccccccccccccccccc" />
  <path
     style="fill:none;fill-opacity:1;stroke:#000000;stroke-width:3.99999983000000010;stroke-linecap:round;stroke-miterlimit:4;stroke-opacity:1;stroke-dasharray:none"
     d="m 1658.0625,-89.6875 2.2813,7.375 10.6562,17.125 18.0625,11.28125 -8.1875,17.40625 -0.6875,17 2,6.09375 -5.4687,11.09375 5,37.625 6.9687,9.1875 -3.2187,11 -5.5313,6.40625 -1.1563,24.90625 5.3438,10.375 0.094,4.21875 -23.2813,11.1875 -12.6563,1.90625 17.1876,54.6875 7.0937,7.21875 1.7187,8.40625 11.3126,18.5 -1.0313,5.1875 2.1875,5.09375 12.0625,14.3125 -18.5,26.5 -33.1875,29.6875 -32.1875,2.71875 -19.4063,-4.625 -1.9374,2.40625 -4.5,-1 -12.4376,2.3125 2.2188,22.5 8.875,7.09375 4.3125,42.3125 11.8125,47.28125 -8.4688,20 -7.875,31.5 -11,21 13.625,36.59375 -30.8437,39.40625 -29.1563,27.90625 -15.125,12.1875 -13.6562,5.125 19.9688,9.5 -9.875,3.6875 -3.7188,36.8125 1.75,7.59375 -1.5,44 4.0625,30.5 28.8125,0.78125 33.5625,10.5 43.2187,26.125 5.3126,19.375 13.875,23.5 4.8124,26.71875 -0.4374,23.5 -9.375,21.6875 -13.8126,59.3125 -11.8124,23 -6.0313,16.5 -4.3437,7.59375 -30.8438,42.4062 6.6875,31 0.3125,27 8.9375,31.5 13.125,22.5 4.1875,6.5938 8.8438,5.0938 18.4687,31.9062 17.625,23.8125 7.6875,19.6875 27.5625,43.4062 14.2187,35.0938 23.4376,30.8125 47.5312,54.5 6.5625,5 10.875,13.6875 12.4063,11.5 29.5,7.5938 14.5937,15.3124 9.6563,5.0938 12.0624,1.0938 9.5313,-4.2813 1.8125,-28.125 5.6875,-1.375 3.9375,-31.7187 1.5,-12.2813 3.2188,-3.2187 1.1874,1.3124 6.3438,-13.7187 4.9688,0.125 4.125,-4.9063 5.3124,-2.3124 6.1563,4.9062 3,-2.0938 -3.2187,-13 4.5,-20.4062 7.4374,-8.4062 7.4688,-0.094 1.75,-22.5938 7.9062,-19.3124 2.25,-1.5938 6.25,6.4062 -6.0312,-7.4062 7.0625,-5.5 4.6875,0.8125 0.3438,1.6875 1.75,-1.9062 2.5,4.2187 -1.5313,5.0937 -7.25,6.4063 7.7187,-6.125 2.6563,-7.0937 8.2813,-4.5 4.8124,0.9062 2.1563,-6.1875 4.6875,-4.7187 4.4688,0.9062 -1.5313,-2 2.375,-1.3125 0.5625,-7.7813 -1.5938,-1.0937 2.6876,-1.9063 -1.5313,-1.4062 2.4687,-5.8125 5.75,-4.5937 0.3126,-4.4063 -5.5626,-6.5 -0.6874,-21.875 3.0312,-8.125 -1.9375,-8.0937 1.0937,-24.0938 4.8126,-52.3125 8.75,-57.875 6.2812,-24.2187 7.5938,-13.2813 13.9062,-28.71875 17.75,-17.78125 6,-3.3125 34.9062,-3.09375 3.9376,1.09375 -4.3438,7.40625 4.8438,-5.21875 6.1562,-1 13.5938,0.90625 -0.2188,4.59375 2,-4.09375 17,-5.6875 1.6875,-1.09375 0.75,-117.3125 -0.3125,-34.1875 0.031,0 0,-43.25 0.25,-590.5 3.9376,-1.15625 4.0624,-5.3125 5.625,0.59375 -0.375,-17.59375 -13.25,-1.875 0.094,-224.8125 -479.5625,-5.59375 z"
     transform="translate(-480803.67,4076603.8)"
     id="path3672"
     sodipodi:nodetypes="ccccccccccccccccccccccccccccccccccccccccccccccccccccccccccccccccccccccccccccccccccccccccccccccccccccccccccccccccccccccccccccccccccccccccccccccccccccccccccccccccc" />
  <path
     style="fill:none;fill-opacity:1;stroke:#000000;stroke-width:3.99999983;stroke-linecap:round;stroke-miterlimit:4;stroke-opacity:1;stroke-dasharray:none"
     d="M -78.03125 647.6875 L -78.65625 1074.9062 L -77.3125 1074.5 L -72.21875 1062 L -73.125 1058 L -68.5 1053 L -69.1875 1047.5 L -53.3125 1040 L -39.46875 1015.9062 L -34.8125 1013 L -33.125 1008.9062 L -26.21875 1005.4062 L -19.96875 991 L -19.96875 980.90625 L -15.34375 980.8125 L -8.34375 975.90625 L -6.0625 971.09375 L 1.09375 967.3125 L 4.59375 963 L 3.21875 955 L 5.4375 935.1875 L 3.71875 930.8125 L -2.84375 926.6875 L -3.625 915.5 L -0.0625 912.6875 L 10.71875 895.09375 L 8.6875 890.6875 L 9.15625 881.40625 L 7.78125 878.09375 L 4.53125 878 L 8.71875 872.59375 L 7.1875 865.5 L 11.75 858 L 11.3125 855.1875 L 15.46875 855.5 L 15.3125 837.90625 L 12.5625 835.59375 L 10.6875 819.1875 L 4.84375 815.5 L -34.375 805.09375 L -38.40625 797.40625 L -37.34375 774.90625 L -38 768.8125 L -33.875 762.59375 L -32.84375 756.09375 L -34.125 749.59375 L -31.84375 727 L -39.15625 720.40625 L -44.8125 706.6875 L -43.84375 703.59375 L -46.4375 695.1875 L -34.5 663.8125 L -36.5 656.90625 L -45.875 655.6875 L -68.34375 653.8125 L -72.40625 653.59375 L -78.03125 647.6875 z M -78.90625 1129.0938 L -78.53125 1989.1875 L -78.71875 1989.4062 L -79.1875 2405.0938 L 697.09375 2408.5938 L 698.0625 2403.5 L 700.625 2402.1875 L 702.65625 2403.4062 L 702 2408 L 703.1875 2403.4062 L 701.34375 2401.6875 L 716.875 2350.1875 L 724.0625 2338.6875 L 729.375 2334.5 L 738.15625 2332.5 L 749.34375 2323 L 749.96875 2315.1875 L 754.875 2312.1875 L 752.53125 2311.8125 L 759.8125 2302.5938 L 765.0625 2291.4062 L 776.90625 2282.8125 L 780.65625 2273.8125 L 787.875 2265.6875 L 796.65625 2259.9062 L 796.1875 2258.4062 L 805.125 2249 L 807.03125 2243.5 L 821.78125 2231.5 L 840.53125 2186.3125 L 858.78125 2158.4062 L 863.34375 2154.8125 L 866.40625 2155.8125 L 867.375 2153.9062 L 872.4375 2153.5938 L 877.4375 2154.5938 L 880.65625 2159.3125 L 882.15625 2158.5938 L 885.15625 2155.5938 L 891.375 2135.1875 L 900.46875 2128.9062 L 903.84375 2131.3125 L 907.3125 2131.0938 L 908.09375 2128.9062 L 868.375 2091.9062 L 825.125 2062.9062 L 789.65625 2031.8125 L 742.3125 2025.5938 L 724.09375 2018 L 706.96875 2019 L 710.09375 2045 L 669.875 2014.3125 L 666.3125 2005.8125 L 655.03125 1979.4062 L 648.375 1968.5938 L 641.53125 1964.0938 L 596.9375 1894.1875 L 591.125 1884.6875 L 549.5 1822.1875 L 547.6875 1817.5938 L 549.53125 1809 L 547.625 1803.9062 L 537.1875 1798 L 531.75 1785 L 524.28125 1778.3125 L 522.375 1768.5938 L 519.25 1764.5 L 518.8125 1752.5 L 512.46875 1740.3125 L 506.59375 1743 L 503.21875 1732.9062 L 496.375 1725.3125 L 490.125 1705.8125 L 485.40625 1699.5938 L 487.78125 1680.4062 L 485.875 1672.1875 L 487.0625 1663.0938 L 484.65625 1660.0938 L 489.59375 1644.9062 L 490.125 1632.9062 L 494.09375 1628.9062 L 498.6875 1628.3125 L 503.21875 1621 L 495.8125 1592.5938 L 493.40625 1566.1875 L 488.8125 1553.5 L 496.71875 1510.4062 L 502.5 1490.0938 L 499.125 1484.0938 L 503.84375 1457.9062 L 511.5 1440.5 L 523.625 1430.5938 L 526.84375 1418.9062 L 517.75 1411.0938 L 511.90625 1411.3125 L 504.46875 1401.5938 L 499.84375 1407.8125 L 495.03125 1406.6875 L 493.59375 1401.4062 L 474.53125 1418.8125 L 470.4375 1418.3125 L 455.125 1409 L 451.625 1411.4062 L 447.625 1410.0938 L 448.3125 1407.8125 L 443.3125 1403 L 437.09375 1401.0938 L 432.65625 1402.1875 L 429.71875 1397.3125 L 420.65625 1395.8125 L 416.875 1396.8125 L 412.9375 1404.6875 L 405 1413.3125 L 403.625 1409.6875 L 389.6875 1405.6875 L 384.0625 1400.4062 L 379 1400.1875 L 380.6875 1393.4062 L 376.25 1386.6875 L 367.90625 1381.9062 L 362.21875 1372.9062 L 354.6875 1373.5938 L 349 1376.9062 L 330.6875 1377.4062 L 331.78125 1379.6875 L 325.09375 1386.0938 L 316.5625 1384.1875 L 308.21875 1389.8125 L 294.1875 1371.1875 L 293.875 1368.3125 L 268.71875 1349.6875 L 253.1875 1341.3125 L 252.46875 1339.0938 L 246.5625 1339.5 L 244.5 1335.9062 L 235.25 1332.5 L 218.09375 1316.5938 L 212.125 1301.6875 L 203.28125 1297.3125 L 195.0625 1288 L 192.15625 1287.0938 L 169.09375 1243.6875 L 168.21875 1226.5 L 156.1875 1216.8125 L 140.96875 1209.5 L 120.4375 1192.1875 L 102.40625 1197.3125 L 85.625 1196.0938 L 63.75 1185.1875 L 52.125 1182.1875 L 43.03125 1183.3125 L 29.90625 1181.0938 L 20.28125 1167.1875 L 15.875 1167.0938 L -1.0625 1158.9062 L -13.5 1157.1875 L -23.875 1148.4062 L -30.96875 1153.1875 L -33.5 1153.0938 L -34.6875 1150.0938 L -50.40625 1140.4062 L -59.75 1131.1875 L -78.90625 1129.0938 z "
     transform="translate(-480803.67,4076603.8)"
     id="path3691" />
</svg>
